<svg width="1002" height="643" viewBox="0 0 1002 643" fill="none" xmlns="http://www.w3.org/2000/svg">
<mask id="path-1-outside-1_0_7029" maskUnits="userSpaceOnUse" x="0" y="0" width="1002" height="643" fill="black">
<rect fill="white" width="1002" height="643"/>
<path d="M4 248.217C4 248.217 4 285.101 7.94458 295.899C11.8892 306.697 32.058 352.906 32.058 352.906C32.058 352.906 40.4273 359.796 51.7466 357.808C63.0658 355.819 77.8151 344.542 77.8151 343.068C77.8151 341.594 97.9839 348.484 97.9839 348.484H112.253L117.158 342.588C117.158 342.588 132.902 357.842 131.427 378.478C131.427 378.478 177.664 414.368 144.221 456.155C144.221 456.155 133.897 470.415 114.208 472.369C114.208 472.369 129.472 516.623 129.472 522.519C129.472 528.415 116.678 526.461 116.198 528.895C115.717 531.329 105.393 548.571 107.828 551.519C110.264 554.467 123.092 568.248 125.527 569.208C127.963 570.167 114.723 591.832 117.672 603.11C120.622 614.388 133.897 639 133.897 639H221.466C221.466 639 248.53 629.162 265.234 609.006C281.938 588.849 321.796 582.474 321.796 582.474C321.796 582.474 332.12 574.109 339.495 574.624C339.495 574.624 347.864 542.675 359.184 536.779C359.184 536.779 363.608 527.935 377.877 520.565C392.147 513.195 401.476 491.085 401.476 491.085L445.758 455.195V428.663L487.571 412.449V384.443C487.571 384.443 490.041 377.073 495.94 373.13L509.215 364.286C509.215 364.286 507.26 351.98 517.07 351.02C526.88 350.06 539.194 349.546 539.194 349.546C539.194 349.546 536.724 331.344 550.993 318.078C565.262 304.812 588.861 274.338 588.861 274.338C588.861 274.338 579.531 237.967 600.66 228.129C621.79 218.291 657.222 221.753 657.222 221.753L696.085 209.447C696.085 209.447 718.209 208.967 727.573 211.401C736.937 213.835 753.161 208.453 754.122 190.765C754.122 190.765 761.016 175.511 779.71 169.135C779.71 169.135 813.153 187.337 806.773 206.499C800.393 225.661 805.298 237.967 805.298 237.967C805.298 237.967 826.942 240.436 836.786 253.222C846.631 266.008 866.799 272.384 866.799 272.384C866.799 272.384 881.068 293.534 884.018 294.014C886.968 294.494 914.992 297.956 923.361 295.008C931.731 292.06 947.955 282.702 948.95 253.702L960.749 241.91C960.749 241.91 948.435 228.129 958.279 200.123C968.124 172.117 985.343 172.117 985.343 172.117V147.059C985.343 147.059 990.248 130.331 996.662 128.377C1003.08 126.423 984.348 100.371 984.348 100.371C984.348 100.371 943.53 76.7866 961.229 58.1044C961.229 58.1044 974.504 54.6765 949.91 47.3065C925.316 39.9364 890.398 23.2082 883.984 15.8381C883.984 15.8381 819.053 5.04018 793.979 8.94801C768.905 12.8558 753.161 6 753.161 6C753.161 6 739.887 38.4281 684.285 40.4163C684.285 40.4163 658.217 40.8962 645.903 46.3124C645.903 46.3124 629.679 42.8844 621.79 48.7805C621.79 48.7805 607.04 51.7285 597.196 47.3065C597.196 47.3065 569.172 82.6826 579.497 84.1909C589.821 85.6992 591.811 90.5668 612.94 88.6129C634.069 86.659 649.848 106.301 649.848 106.301C649.848 106.301 689.705 105.307 691.18 119.087C691.18 119.087 666.106 124.983 661.167 126.937C656.228 128.891 592.84 132.627 586.872 132.936C580.903 133.244 552.262 152.029 552.262 152.029C552.262 152.029 519.436 167.249 487.194 126.08C487.194 126.08 480.025 120.424 465.413 131.462C450.801 142.5 422.743 137.427 407.788 126.971C392.833 116.516 357.64 135.61 357.64 135.61C357.64 135.61 318.229 136.192 310.168 132.319C310.168 132.319 301.799 132.01 290.479 140.957L255.87 138.558C255.87 138.558 235.564 135.575 224.828 141.54C214.092 147.505 212.308 155.56 212.308 155.56H198.588C198.588 155.56 199.48 174.962 191.728 183.292C183.976 191.622 190.527 210.75 190.527 210.75C190.527 210.75 170.53 251.611 138.596 233.717C138.596 233.717 112.63 224.461 95.6171 231.934C95.6171 231.934 64.2663 286.815 24.2717 251.919C24.2717 251.919 14.9762 245.646 4.1029 248.32L4 248.217Z"/>
</mask>
<path d="M4 248.217C4 248.217 4 285.101 7.94458 295.899C11.8892 306.697 32.058 352.906 32.058 352.906C32.058 352.906 40.4273 359.796 51.7466 357.808C63.0658 355.819 77.8151 344.542 77.8151 343.068C77.8151 341.594 97.9839 348.484 97.9839 348.484H112.253L117.158 342.588C117.158 342.588 132.902 357.842 131.427 378.478C131.427 378.478 177.664 414.368 144.221 456.155C144.221 456.155 133.897 470.415 114.208 472.369C114.208 472.369 129.472 516.623 129.472 522.519C129.472 528.415 116.678 526.461 116.198 528.895C115.717 531.329 105.393 548.571 107.828 551.519C110.264 554.467 123.092 568.248 125.527 569.208C127.963 570.167 114.723 591.832 117.672 603.11C120.622 614.388 133.897 639 133.897 639H221.466C221.466 639 248.53 629.162 265.234 609.006C281.938 588.849 321.796 582.474 321.796 582.474C321.796 582.474 332.12 574.109 339.495 574.624C339.495 574.624 347.864 542.675 359.184 536.779C359.184 536.779 363.608 527.935 377.877 520.565C392.147 513.195 401.476 491.085 401.476 491.085L445.758 455.195V428.663L487.571 412.449V384.443C487.571 384.443 490.041 377.073 495.94 373.13L509.215 364.286C509.215 364.286 507.26 351.98 517.07 351.02C526.88 350.06 539.194 349.546 539.194 349.546C539.194 349.546 536.724 331.344 550.993 318.078C565.262 304.812 588.861 274.338 588.861 274.338C588.861 274.338 579.531 237.967 600.66 228.129C621.79 218.291 657.222 221.753 657.222 221.753L696.085 209.447C696.085 209.447 718.209 208.967 727.573 211.401C736.937 213.835 753.161 208.453 754.122 190.765C754.122 190.765 761.016 175.511 779.71 169.135C779.71 169.135 813.153 187.337 806.773 206.499C800.393 225.661 805.298 237.967 805.298 237.967C805.298 237.967 826.942 240.436 836.786 253.222C846.631 266.008 866.799 272.384 866.799 272.384C866.799 272.384 881.068 293.534 884.018 294.014C886.968 294.494 914.992 297.956 923.361 295.008C931.731 292.06 947.955 282.702 948.95 253.702L960.749 241.91C960.749 241.91 948.435 228.129 958.279 200.123C968.124 172.117 985.343 172.117 985.343 172.117V147.059C985.343 147.059 990.248 130.331 996.662 128.377C1003.08 126.423 984.348 100.371 984.348 100.371C984.348 100.371 943.53 76.7866 961.229 58.1044C961.229 58.1044 974.504 54.6765 949.91 47.3065C925.316 39.9364 890.398 23.2082 883.984 15.8381C883.984 15.8381 819.053 5.04018 793.979 8.94801C768.905 12.8558 753.161 6 753.161 6C753.161 6 739.887 38.4281 684.285 40.4163C684.285 40.4163 658.217 40.8962 645.903 46.3124C645.903 46.3124 629.679 42.8844 621.79 48.7805C621.79 48.7805 607.04 51.7285 597.196 47.3065C597.196 47.3065 569.172 82.6826 579.497 84.1909C589.821 85.6992 591.811 90.5668 612.94 88.6129C634.069 86.659 649.848 106.301 649.848 106.301C649.848 106.301 689.705 105.307 691.18 119.087C691.18 119.087 666.106 124.983 661.167 126.937C656.228 128.891 592.84 132.627 586.872 132.936C580.903 133.244 552.262 152.029 552.262 152.029C552.262 152.029 519.436 167.249 487.194 126.08C487.194 126.08 480.025 120.424 465.413 131.462C450.801 142.5 422.743 137.427 407.788 126.971C392.833 116.516 357.64 135.61 357.64 135.61C357.64 135.61 318.229 136.192 310.168 132.319C310.168 132.319 301.799 132.01 290.479 140.957L255.87 138.558C255.87 138.558 235.564 135.575 224.828 141.54C214.092 147.505 212.308 155.56 212.308 155.56H198.588C198.588 155.56 199.48 174.962 191.728 183.292C183.976 191.622 190.527 210.75 190.527 210.75C190.527 210.75 170.53 251.611 138.596 233.717C138.596 233.717 112.63 224.461 95.6171 231.934C95.6171 231.934 64.2663 286.815 24.2717 251.919C24.2717 251.919 14.9762 245.646 4.1029 248.32L4 248.217Z" fill="#3A6883"/>
<path d="M4 248.217C4 248.217 4 285.101 7.94458 295.899C11.8892 306.697 32.058 352.906 32.058 352.906C32.058 352.906 40.4273 359.796 51.7466 357.808C63.0658 355.819 77.8151 344.542 77.8151 343.068C77.8151 341.594 97.9839 348.484 97.9839 348.484H112.253L117.158 342.588C117.158 342.588 132.902 357.842 131.427 378.478C131.427 378.478 177.664 414.368 144.221 456.155C144.221 456.155 133.897 470.415 114.208 472.369C114.208 472.369 129.472 516.623 129.472 522.519C129.472 528.415 116.678 526.461 116.198 528.895C115.717 531.329 105.393 548.571 107.828 551.519C110.264 554.467 123.092 568.248 125.527 569.208C127.963 570.167 114.723 591.832 117.672 603.11C120.622 614.388 133.897 639 133.897 639H221.466C221.466 639 248.53 629.162 265.234 609.006C281.938 588.849 321.796 582.474 321.796 582.474C321.796 582.474 332.12 574.109 339.495 574.624C339.495 574.624 347.864 542.675 359.184 536.779C359.184 536.779 363.608 527.935 377.877 520.565C392.147 513.195 401.476 491.085 401.476 491.085L445.758 455.195V428.663L487.571 412.449V384.443C487.571 384.443 490.041 377.073 495.94 373.13L509.215 364.286C509.215 364.286 507.26 351.98 517.07 351.02C526.88 350.06 539.194 349.546 539.194 349.546C539.194 349.546 536.724 331.344 550.993 318.078C565.262 304.812 588.861 274.338 588.861 274.338C588.861 274.338 579.531 237.967 600.66 228.129C621.79 218.291 657.222 221.753 657.222 221.753L696.085 209.447C696.085 209.447 718.209 208.967 727.573 211.401C736.937 213.835 753.161 208.453 754.122 190.765C754.122 190.765 761.016 175.511 779.71 169.135C779.71 169.135 813.153 187.337 806.773 206.499C800.393 225.661 805.298 237.967 805.298 237.967C805.298 237.967 826.942 240.436 836.786 253.222C846.631 266.008 866.799 272.384 866.799 272.384C866.799 272.384 881.068 293.534 884.018 294.014C886.968 294.494 914.992 297.956 923.361 295.008C931.731 292.06 947.955 282.702 948.95 253.702L960.749 241.91C960.749 241.91 948.435 228.129 958.279 200.123C968.124 172.117 985.343 172.117 985.343 172.117V147.059C985.343 147.059 990.248 130.331 996.662 128.377C1003.08 126.423 984.348 100.371 984.348 100.371C984.348 100.371 943.53 76.7866 961.229 58.1044C961.229 58.1044 974.504 54.6765 949.91 47.3065C925.316 39.9364 890.398 23.2082 883.984 15.8381C883.984 15.8381 819.053 5.04018 793.979 8.94801C768.905 12.8558 753.161 6 753.161 6C753.161 6 739.887 38.4281 684.285 40.4163C684.285 40.4163 658.217 40.8962 645.903 46.3124C645.903 46.3124 629.679 42.8844 621.79 48.7805C621.79 48.7805 607.04 51.7285 597.196 47.3065C597.196 47.3065 569.172 82.6826 579.497 84.1909C589.821 85.6992 591.811 90.5668 612.94 88.6129C634.069 86.659 649.848 106.301 649.848 106.301C649.848 106.301 689.705 105.307 691.18 119.087C691.18 119.087 666.106 124.983 661.167 126.937C656.228 128.891 592.84 132.627 586.872 132.936C580.903 133.244 552.262 152.029 552.262 152.029C552.262 152.029 519.436 167.249 487.194 126.08C487.194 126.08 480.025 120.424 465.413 131.462C450.801 142.5 422.743 137.427 407.788 126.971C392.833 116.516 357.64 135.61 357.64 135.61C357.64 135.61 318.229 136.192 310.168 132.319C310.168 132.319 301.799 132.01 290.479 140.957L255.87 138.558C255.87 138.558 235.564 135.575 224.828 141.54C214.092 147.505 212.308 155.56 212.308 155.56H198.588C198.588 155.56 199.48 174.962 191.728 183.292C183.976 191.622 190.527 210.75 190.527 210.75C190.527 210.75 170.53 251.611 138.596 233.717C138.596 233.717 112.63 224.461 95.6171 231.934C95.6171 231.934 64.2663 286.815 24.2717 251.919C24.2717 251.919 14.9762 245.646 4.1029 248.32L4 248.217Z" stroke="white" stroke-width="8" mask="url(#path-1-outside-1_0_7029)"/>
</svg>
