<svg width="467" height="298" viewBox="0 0 467 298" fill="none" xmlns="http://www.w3.org/2000/svg">
<mask id="path-1-outside-1_0_7046" maskUnits="userSpaceOnUse" x="0" y="0" width="467" height="298" fill="black">
<rect fill="white" width="467" height="298"/>
<path d="M4 197.634V145.857C4 145.857 6.38128 125.557 18.2215 113.026C18.2215 113.026 17.8908 91.7003 23.3148 84.2611C28.7388 76.822 43.2911 73.7802 58.1741 44.3212C73.0571 14.8623 91.6774 24.3513 91.6774 24.3513C91.6774 24.3513 105.568 35.1628 105.204 41.2795C105.204 41.2795 131.597 26.8641 146.844 22.8965C162.09 18.929 179.685 16.5815 189.144 11.8205C189.144 11.8205 191.526 9.43995 212.825 35.8572C212.825 35.8572 219.605 39.9239 220.266 28.418C220.928 16.9122 232.14 4.77809 232.14 4.77809C232.14 4.77809 239.581 0.0501046 247.387 13.9034C255.192 27.7568 264.982 52.1241 264.982 52.1241C264.982 52.1241 269.38 65.6468 257.871 69.0522C246.361 72.4577 242.624 74.8052 242.293 79.2025C241.963 83.5999 240.606 98.8419 238.92 103.9C238.92 103.9 270.406 131.64 271.762 143.84C273.118 156.041 295.806 135.707 295.442 129.623C295.078 123.54 294.086 106.843 302.553 100.826C311.02 94.8082 321.173 86.6747 325.241 74.1439C329.309 61.6131 355.04 47.4291 355.04 47.4291C355.04 47.4291 398.697 46.4042 407.494 60.9518C407.494 60.9518 416.986 64.6879 415.961 74.1439C415.961 74.1439 431.539 69.7466 444.404 73.119C457.27 76.4914 461.669 81.9137 461.669 81.9137C461.669 81.9137 465.737 95.1058 459.651 103.9C459.651 103.9 457.964 118.117 447.48 128.268C447.48 128.268 452.573 167.844 447.811 169.894C443.048 171.944 435.64 176.308 434.284 180.375C432.928 184.442 426.148 195.617 410.603 187.483C410.603 187.483 404.518 210.826 404.518 216.909H392.678C392.678 216.909 392.678 210.826 383.88 215.554C375.083 220.282 376.108 230.101 376.108 230.101C376.108 230.101 370.684 237.871 366.98 222.993C363.275 208.115 348.359 206.428 348.359 206.428C348.359 206.428 335.825 188.145 328.383 186.128C328.383 186.128 320.247 163.116 312.144 161.099C304.041 159.082 296.236 160.074 295.905 167.183C295.574 174.291 281.353 176.672 281.353 176.672C281.353 176.672 278.972 213.206 272.225 232.151L271.894 264.983C271.894 264.983 279.666 273.447 279.666 276.488C279.666 279.53 282.378 291.73 275.598 293.747C268.818 295.764 267.462 285.283 267.462 277.513C267.462 269.744 264.419 263.296 257.639 270.074C250.859 276.852 239.714 289.714 217.687 288.689C217.687 288.689 210.907 279.2 214.313 275.497L197.38 275.166C197.38 275.166 185.539 271.794 187.888 256.882C187.888 256.882 188.913 250.799 200.753 251.46L235.282 226.068C235.282 226.068 239.019 215.587 235.282 201.37C231.544 187.153 220.035 151.643 222.085 129.623C224.136 107.604 227.179 87.6666 204.16 93.4195C204.16 93.4195 163.546 132.004 152.698 164.472C141.85 196.939 133.912 217.934 96.8368 235.193L76.0337 263.958C76.0337 263.958 55.0321 273.777 41.1744 257.874C41.1744 257.874 42.5304 208.478 4.09922 197.634H4Z"/>
</mask>
<path d="M4 197.634V145.857C4 145.857 6.38128 125.557 18.2215 113.026C18.2215 113.026 17.8908 91.7003 23.3148 84.2611C28.7388 76.822 43.2911 73.7802 58.1741 44.3212C73.0571 14.8623 91.6774 24.3513 91.6774 24.3513C91.6774 24.3513 105.568 35.1628 105.204 41.2795C105.204 41.2795 131.597 26.8641 146.844 22.8965C162.09 18.929 179.685 16.5815 189.144 11.8205C189.144 11.8205 191.526 9.43995 212.825 35.8572C212.825 35.8572 219.605 39.9239 220.266 28.418C220.928 16.9122 232.14 4.77809 232.14 4.77809C232.14 4.77809 239.581 0.0501046 247.387 13.9034C255.192 27.7568 264.982 52.1241 264.982 52.1241C264.982 52.1241 269.38 65.6468 257.871 69.0522C246.361 72.4577 242.624 74.8052 242.293 79.2025C241.963 83.5999 240.606 98.8419 238.92 103.9C238.92 103.9 270.406 131.64 271.762 143.84C273.118 156.041 295.806 135.707 295.442 129.623C295.078 123.54 294.086 106.843 302.553 100.826C311.02 94.8082 321.173 86.6747 325.241 74.1439C329.309 61.6131 355.04 47.4291 355.04 47.4291C355.04 47.4291 398.697 46.4042 407.494 60.9518C407.494 60.9518 416.986 64.6879 415.961 74.1439C415.961 74.1439 431.539 69.7466 444.404 73.119C457.27 76.4914 461.669 81.9137 461.669 81.9137C461.669 81.9137 465.737 95.1058 459.651 103.9C459.651 103.9 457.964 118.117 447.48 128.268C447.48 128.268 452.573 167.844 447.811 169.894C443.048 171.944 435.64 176.308 434.284 180.375C432.928 184.442 426.148 195.617 410.603 187.483C410.603 187.483 404.518 210.826 404.518 216.909H392.678C392.678 216.909 392.678 210.826 383.88 215.554C375.083 220.282 376.108 230.101 376.108 230.101C376.108 230.101 370.684 237.871 366.98 222.993C363.275 208.115 348.359 206.428 348.359 206.428C348.359 206.428 335.825 188.145 328.383 186.128C328.383 186.128 320.247 163.116 312.144 161.099C304.041 159.082 296.236 160.074 295.905 167.183C295.574 174.291 281.353 176.672 281.353 176.672C281.353 176.672 278.972 213.206 272.225 232.151L271.894 264.983C271.894 264.983 279.666 273.447 279.666 276.488C279.666 279.53 282.378 291.73 275.598 293.747C268.818 295.764 267.462 285.283 267.462 277.513C267.462 269.744 264.419 263.296 257.639 270.074C250.859 276.852 239.714 289.714 217.687 288.689C217.687 288.689 210.907 279.2 214.313 275.497L197.38 275.166C197.38 275.166 185.539 271.794 187.888 256.882C187.888 256.882 188.913 250.799 200.753 251.46L235.282 226.068C235.282 226.068 239.019 215.587 235.282 201.37C231.544 187.153 220.035 151.643 222.085 129.623C224.136 107.604 227.179 87.6666 204.16 93.4195C204.16 93.4195 163.546 132.004 152.698 164.472C141.85 196.939 133.912 217.934 96.8368 235.193L76.0337 263.958C76.0337 263.958 55.0321 273.777 41.1744 257.874C41.1744 257.874 42.5304 208.478 4.09922 197.634H4Z" fill="#3A6883"/>
<path d="M4 197.634V145.857C4 145.857 6.38128 125.557 18.2215 113.026C18.2215 113.026 17.8908 91.7003 23.3148 84.2611C28.7388 76.822 43.2911 73.7802 58.1741 44.3212C73.0571 14.8623 91.6774 24.3513 91.6774 24.3513C91.6774 24.3513 105.568 35.1628 105.204 41.2795C105.204 41.2795 131.597 26.8641 146.844 22.8965C162.09 18.929 179.685 16.5815 189.144 11.8205C189.144 11.8205 191.526 9.43995 212.825 35.8572C212.825 35.8572 219.605 39.9239 220.266 28.418C220.928 16.9122 232.14 4.77809 232.14 4.77809C232.14 4.77809 239.581 0.0501046 247.387 13.9034C255.192 27.7568 264.982 52.1241 264.982 52.1241C264.982 52.1241 269.38 65.6468 257.871 69.0522C246.361 72.4577 242.624 74.8052 242.293 79.2025C241.963 83.5999 240.606 98.8419 238.92 103.9C238.92 103.9 270.406 131.64 271.762 143.84C273.118 156.041 295.806 135.707 295.442 129.623C295.078 123.54 294.086 106.843 302.553 100.826C311.02 94.8082 321.173 86.6747 325.241 74.1439C329.309 61.6131 355.04 47.4291 355.04 47.4291C355.04 47.4291 398.697 46.4042 407.494 60.9518C407.494 60.9518 416.986 64.6879 415.961 74.1439C415.961 74.1439 431.539 69.7466 444.404 73.119C457.27 76.4914 461.669 81.9137 461.669 81.9137C461.669 81.9137 465.737 95.1058 459.651 103.9C459.651 103.9 457.964 118.117 447.48 128.268C447.48 128.268 452.573 167.844 447.811 169.894C443.048 171.944 435.64 176.308 434.284 180.375C432.928 184.442 426.148 195.617 410.603 187.483C410.603 187.483 404.518 210.826 404.518 216.909H392.678C392.678 216.909 392.678 210.826 383.88 215.554C375.083 220.282 376.108 230.101 376.108 230.101C376.108 230.101 370.684 237.871 366.98 222.993C363.275 208.115 348.359 206.428 348.359 206.428C348.359 206.428 335.825 188.145 328.383 186.128C328.383 186.128 320.247 163.116 312.144 161.099C304.041 159.082 296.236 160.074 295.905 167.183C295.574 174.291 281.353 176.672 281.353 176.672C281.353 176.672 278.972 213.206 272.225 232.151L271.894 264.983C271.894 264.983 279.666 273.447 279.666 276.488C279.666 279.53 282.378 291.73 275.598 293.747C268.818 295.764 267.462 285.283 267.462 277.513C267.462 269.744 264.419 263.296 257.639 270.074C250.859 276.852 239.714 289.714 217.687 288.689C217.687 288.689 210.907 279.2 214.313 275.497L197.38 275.166C197.38 275.166 185.539 271.794 187.888 256.882C187.888 256.882 188.913 250.799 200.753 251.46L235.282 226.068C235.282 226.068 239.019 215.587 235.282 201.37C231.544 187.153 220.035 151.643 222.085 129.623C224.136 107.604 227.179 87.6666 204.16 93.4195C204.16 93.4195 163.546 132.004 152.698 164.472C141.85 196.939 133.912 217.934 96.8368 235.193L76.0337 263.958C76.0337 263.958 55.0321 273.777 41.1744 257.874C41.1744 257.874 42.5304 208.478 4.09922 197.634H4Z" stroke="white" strokeWidth="8" mask="url(#path-1-outside-1_0_7046)"/>
</svg>
