<svg width="914" height="530" viewBox="0 0 914 530" fill="none" xmlns="http://www.w3.org/2000/svg">
<mask id="path-1-outside-1_0_7036" maskUnits="userSpaceOnUse" x="0" y="271.967" width="92" height="139" fill="black">
<rect fill="white" y="271.967" width="92" height="139"/>
<path d="M4.0605 385.705L13.4357 366.954V328.045C13.4357 328.045 27.1341 284.812 30.7288 281.898C34.3234 278.983 47.2932 271.065 71.0955 284.764V299.919C71.0955 299.919 87.8056 312.938 87.8056 319.156C87.8056 325.373 84.6968 351.41 75.7102 354.179C66.7236 356.948 42.5327 371.229 38.5009 389.834C34.4691 408.438 9.06383 411.207 6.24642 400.375C3.42901 389.542 4.0605 385.705 4.0605 385.705Z"/>
</mask>
<path d="M4.0605 385.705L13.4357 366.954V328.045C13.4357 328.045 27.1341 284.812 30.7288 281.898C34.3234 278.983 47.2932 271.065 71.0955 284.764V299.919C71.0955 299.919 87.8056 312.938 87.8056 319.156C87.8056 325.373 84.6968 351.41 75.7102 354.179C66.7236 356.948 42.5327 371.229 38.5009 389.834C34.4691 408.438 9.06383 411.207 6.24642 400.375C3.42901 389.542 4.0605 385.705 4.0605 385.705Z" fill="#3A6883"/>
<path d="M4.0605 385.705L13.4357 366.954V328.045C13.4357 328.045 27.1341 284.812 30.7288 281.898C34.3234 278.983 47.2932 271.065 71.0955 284.764V299.919C71.0955 299.919 87.8056 312.938 87.8056 319.156C87.8056 325.373 84.6968 351.41 75.7102 354.179C66.7236 356.948 42.5327 371.229 38.5009 389.834C34.4691 408.438 9.06383 411.207 6.24642 400.375C3.42901 389.542 4.0605 385.705 4.0605 385.705Z" stroke="white" stroke-width="8" mask="url(#path-1-outside-1_0_7036)"/>
<mask id="path-2-outside-2_0_7036" maskUnits="userSpaceOnUse" x="182.77" y="168.006" width="102" height="111" fill="black">
<rect fill="white" x="182.77" y="168.006" width="102" height="111"/>
<path d="M188.263 268.154C188.263 268.154 200.893 221.084 226.735 201.848C252.578 182.611 272.203 172.265 272.203 172.265C272.203 172.265 276.672 170.37 275.992 176.831C275.311 183.292 279.732 209.765 279.732 209.765L258.018 226.719C258.018 226.719 250.198 234.199 248.157 227.059C246.117 219.918 236.256 227.739 236.256 227.739L233.973 239.98C233.973 239.98 226.735 262.033 220.663 264.414C214.591 266.794 183.503 282.532 188.263 268.154Z"/>
</mask>
<path d="M188.263 268.154C188.263 268.154 200.893 221.084 226.735 201.848C252.578 182.611 272.203 172.265 272.203 172.265C272.203 172.265 276.672 170.37 275.992 176.831C275.311 183.292 279.732 209.765 279.732 209.765L258.018 226.719C258.018 226.719 250.198 234.199 248.157 227.059C246.117 219.918 236.256 227.739 236.256 227.739L233.973 239.98C233.973 239.98 226.735 262.033 220.663 264.414C214.591 266.794 183.503 282.532 188.263 268.154Z" fill="#3A6883"/>
<path d="M188.263 268.154C188.263 268.154 200.893 221.084 226.735 201.848C252.578 182.611 272.203 172.265 272.203 172.265C272.203 172.265 276.672 170.37 275.992 176.831C275.311 183.292 279.732 209.765 279.732 209.765L258.018 226.719C258.018 226.719 250.198 234.199 248.157 227.059C246.117 219.918 236.256 227.739 236.256 227.739L233.973 239.98C233.973 239.98 226.735 262.033 220.663 264.414C214.591 266.794 183.503 282.532 188.263 268.154Z" stroke="white" stroke-width="8" mask="url(#path-2-outside-2_0_7036)"/>
<mask id="path-3-outside-3_0_7036" maskUnits="userSpaceOnUse" x="373.078" y="-1" width="128" height="263" fill="black">
<rect fill="white" x="373.078" y="-1" width="128" height="263"/>
<path d="M404.718 41.8338C404.718 41.8338 401.172 58.0582 394.808 63.2073C388.445 68.3564 380.187 80.9861 380.187 84.5808C380.187 88.1754 378.195 98.4249 380.187 100.805C382.179 103.185 395.634 115.815 395.634 115.815C395.634 115.815 385.336 129.659 384.17 135.586C383.004 141.512 383.004 160.505 383.004 160.505C383.004 160.505 377.078 164.488 377.078 171.969C377.078 179.45 379.847 207.187 385.385 211.899C390.922 216.61 400.395 232.058 412.296 233.661C424.197 235.264 441.15 228.512 447.513 228.9V251.051C447.513 251.051 452.662 263.292 460.192 253.043V240.801C460.192 240.801 482.342 216.659 493.418 213.113L496.575 179.887C496.575 179.887 493.806 151.81 484.334 135.586C474.862 119.361 480.788 89.2926 480.788 89.2926L472.87 53.6864C472.87 53.6864 476.028 16.5257 465.729 16.0885C455.431 15.6513 445.57 -6.06217 443.579 9.77363C441.587 25.6094 439.644 45.7685 439.644 45.7685C439.644 45.7685 424.197 49.7032 421.865 40.6194C419.534 31.5357 404.864 41.7853 404.864 41.7853L404.718 41.8338Z"/>
</mask>
<path d="M404.718 41.8338C404.718 41.8338 401.172 58.0582 394.808 63.2073C388.445 68.3564 380.187 80.9861 380.187 84.5808C380.187 88.1754 378.195 98.4249 380.187 100.805C382.179 103.185 395.634 115.815 395.634 115.815C395.634 115.815 385.336 129.659 384.17 135.586C383.004 141.512 383.004 160.505 383.004 160.505C383.004 160.505 377.078 164.488 377.078 171.969C377.078 179.45 379.847 207.187 385.385 211.899C390.922 216.61 400.395 232.058 412.296 233.661C424.197 235.264 441.15 228.512 447.513 228.9V251.051C447.513 251.051 452.662 263.292 460.192 253.043V240.801C460.192 240.801 482.342 216.659 493.418 213.113L496.575 179.887C496.575 179.887 493.806 151.81 484.334 135.586C474.862 119.361 480.788 89.2926 480.788 89.2926L472.87 53.6864C472.87 53.6864 476.028 16.5257 465.729 16.0885C455.431 15.6513 445.57 -6.06217 443.579 9.77363C441.587 25.6094 439.644 45.7685 439.644 45.7685C439.644 45.7685 424.197 49.7032 421.865 40.6194C419.534 31.5357 404.864 41.7853 404.864 41.7853L404.718 41.8338Z" fill="#3A6883"/>
<path d="M404.718 41.8338C404.718 41.8338 401.172 58.0582 394.808 63.2073C388.445 68.3564 380.187 80.9861 380.187 84.5808C380.187 88.1754 378.195 98.4249 380.187 100.805C382.179 103.185 395.634 115.815 395.634 115.815C395.634 115.815 385.336 129.659 384.17 135.586C383.004 141.512 383.004 160.505 383.004 160.505C383.004 160.505 377.078 164.488 377.078 171.969C377.078 179.45 379.847 207.187 385.385 211.899C390.922 216.61 400.395 232.058 412.296 233.661C424.197 235.264 441.15 228.512 447.513 228.9V251.051C447.513 251.051 452.662 263.292 460.192 253.043V240.801C460.192 240.801 482.342 216.659 493.418 213.113L496.575 179.887C496.575 179.887 493.806 151.81 484.334 135.586C474.862 119.361 480.788 89.2926 480.788 89.2926L472.87 53.6864C472.87 53.6864 476.028 16.5257 465.729 16.0885C455.431 15.6513 445.57 -6.06217 443.579 9.77363C441.587 25.6094 439.644 45.7685 439.644 45.7685C439.644 45.7685 424.197 49.7032 421.865 40.6194C419.534 31.5357 404.864 41.7853 404.864 41.7853L404.718 41.8338Z" stroke="white" stroke-width="8" mask="url(#path-3-outside-3_0_7036)"/>
<mask id="path-4-outside-4_0_7036" maskUnits="userSpaceOnUse" x="551.268" y="365.592" width="23" height="54" fill="black">
<rect fill="white" x="551.268" y="365.592" width="23" height="54"/>
<path d="M556.325 372.926C556.325 372.926 553.945 387.256 556.325 399.691C556.325 399.691 555.014 412.661 561.086 414.556C567.158 416.45 573.278 413.779 567.692 396.534C567.692 396.534 567.449 386.479 566.381 381.67C565.312 376.861 559.774 365.785 556.325 372.926Z"/>
</mask>
<path d="M556.325 372.926C556.325 372.926 553.945 387.256 556.325 399.691C556.325 399.691 555.014 412.661 561.086 414.556C567.158 416.45 573.278 413.779 567.692 396.534C567.692 396.534 567.449 386.479 566.381 381.67C565.312 376.861 559.774 365.785 556.325 372.926Z" fill="#3A6883"/>
<path d="M556.325 372.926C556.325 372.926 553.945 387.256 556.325 399.691C556.325 399.691 555.014 412.661 561.086 414.556C567.158 416.45 573.278 413.779 567.692 396.534C567.692 396.534 567.449 386.479 566.381 381.67C565.312 376.861 559.774 365.785 556.325 372.926Z" stroke="white" stroke-width="8" mask="url(#path-4-outside-4_0_7036)"/>
<mask id="path-5-outside-5_0_7036" maskUnits="userSpaceOnUse" x="601.385" y="366.279" width="36" height="52" fill="black">
<rect fill="white" x="601.385" y="366.279" width="36" height="52"/>
<path d="M605.385 413.249V393.916C605.385 393.916 608.056 378.128 625.009 370.648C625.009 370.648 628.701 367.685 630.596 378.566C632.49 389.447 633.51 392.896 632.733 405.088C631.956 417.281 605.433 413.297 605.433 413.297L605.385 413.249Z"/>
</mask>
<path d="M605.385 413.249V393.916C605.385 393.916 608.056 378.128 625.009 370.648C625.009 370.648 628.701 367.685 630.596 378.566C632.49 389.447 633.51 392.896 632.733 405.088C631.956 417.281 605.433 413.297 605.433 413.297L605.385 413.249Z" fill="#3A6883"/>
<path d="M605.385 413.249V393.916C605.385 393.916 608.056 378.128 625.009 370.648C625.009 370.648 628.701 367.685 630.596 378.566C632.49 389.447 633.51 392.896 632.733 405.088C631.956 417.281 605.433 413.297 605.433 413.297L605.385 413.249Z" stroke="white" stroke-width="8" mask="url(#path-5-outside-5_0_7036)"/>
<mask id="path-6-outside-6_0_7036" maskUnits="userSpaceOnUse" x="663.95" y="353.529" width="84" height="117" fill="black">
<rect fill="white" x="663.95" y="353.529" width="84" height="117"/>
<path d="M667.95 370.256V397.07C667.95 397.07 676.451 416.938 677.762 434.182C679.074 451.427 708.268 475.812 728.67 462.794C749.072 449.775 743 433.357 743 433.357L692.092 357.529H672.759C672.759 357.529 667.998 359.278 667.998 370.208L667.95 370.256Z"/>
</mask>
<path d="M667.95 370.256V397.07C667.95 397.07 676.451 416.938 677.762 434.182C679.074 451.427 708.268 475.812 728.67 462.794C749.072 449.775 743 433.357 743 433.357L692.092 357.529H672.759C672.759 357.529 667.998 359.278 667.998 370.208L667.95 370.256Z" fill="#3A6883"/>
<path d="M667.95 370.256V397.07C667.95 397.07 676.451 416.938 677.762 434.182C679.074 451.427 708.268 475.812 728.67 462.794C749.072 449.775 743 433.357 743 433.357L692.092 357.529H672.759C672.759 357.529 667.998 359.278 667.998 370.208L667.95 370.256Z" stroke="white" stroke-width="8" mask="url(#path-6-outside-6_0_7036)"/>
<mask id="path-7-outside-7_0_7036" maskUnits="userSpaceOnUse" x="650.886" y="458.02" width="27" height="33" fill="black">
<rect fill="white" x="650.886" y="458.02" width="27" height="33"/>
<path d="M655.469 470.52C655.469 470.52 657.072 462.02 661.298 462.02C665.524 462.02 672.956 464.691 673.49 470.52C674.025 476.349 673.49 486.939 673.49 486.939H655.469C655.469 486.939 654.157 474.746 655.469 470.52Z"/>
</mask>
<path d="M655.469 470.52C655.469 470.52 657.072 462.02 661.298 462.02C665.524 462.02 672.956 464.691 673.49 470.52C674.025 476.349 673.49 486.939 673.49 486.939H655.469C655.469 486.939 654.157 474.746 655.469 470.52Z" fill="#3A6883"/>
<path d="M655.469 470.52C655.469 470.52 657.072 462.02 661.298 462.02C665.524 462.02 672.956 464.691 673.49 470.52C674.025 476.349 673.49 486.939 673.49 486.939H655.469C655.469 486.939 654.157 474.746 655.469 470.52Z" stroke="white" stroke-width="8" mask="url(#path-7-outside-7_0_7036)"/>
<mask id="path-8-outside-8_0_7036" maskUnits="userSpaceOnUse" x="729.675" y="459.576" width="45" height="71" fill="black">
<rect fill="white" x="729.675" y="459.576" width="45" height="71"/>
<path d="M733.675 504.719V488.543C733.675 488.543 738.824 464.692 743.828 463.623C748.831 462.555 771.322 479.508 769.767 525.412C769.767 525.412 766.61 528.327 758.643 521.186C750.677 514.045 733.724 508.702 733.724 504.767L733.675 504.719Z"/>
</mask>
<path d="M733.675 504.719V488.543C733.675 488.543 738.824 464.692 743.828 463.623C748.831 462.555 771.322 479.508 769.767 525.412C769.767 525.412 766.61 528.327 758.643 521.186C750.677 514.045 733.724 508.702 733.724 504.767L733.675 504.719Z" fill="#3A6883"/>
<path d="M733.675 504.719V488.543C733.675 488.543 738.824 464.692 743.828 463.623C748.831 462.555 771.322 479.508 769.767 525.412C769.767 525.412 766.61 528.327 758.643 521.186C750.677 514.045 733.724 508.702 733.724 504.767L733.675 504.719Z" stroke="white" stroke-width="8" mask="url(#path-8-outside-8_0_7036)"/>
<mask id="path-9-outside-9_0_7036" maskUnits="userSpaceOnUse" x="853.497" y="287.377" width="61" height="100" fill="black">
<rect fill="white" x="853.497" y="287.377" width="61" height="100"/>
<path d="M858.562 295.547C858.562 295.547 854.87 302.494 861.233 315.755C867.597 329.016 872.892 357.433 882.461 357.53C892.03 357.628 898.928 375.698 898.928 375.698C898.928 375.698 911.655 394.108 909.518 370.597C907.38 347.087 902.62 327.413 902.62 327.413C902.62 327.413 887.756 308.323 881.392 308.323C881.392 308.323 873.96 283.841 858.562 295.547Z"/>
</mask>
<path d="M858.562 295.547C858.562 295.547 854.87 302.494 861.233 315.755C867.597 329.016 872.892 357.433 882.461 357.53C892.03 357.628 898.928 375.698 898.928 375.698C898.928 375.698 911.655 394.108 909.518 370.597C907.38 347.087 902.62 327.413 902.62 327.413C902.62 327.413 887.756 308.323 881.392 308.323C881.392 308.323 873.96 283.841 858.562 295.547Z" fill="#3A6883"/>
<path d="M858.562 295.547C858.562 295.547 854.87 302.494 861.233 315.755C867.597 329.016 872.892 357.433 882.461 357.53C892.03 357.628 898.928 375.698 898.928 375.698C898.928 375.698 911.655 394.108 909.518 370.597C907.38 347.087 902.62 327.413 902.62 327.413C902.62 327.413 887.756 308.323 881.392 308.323C881.392 308.323 873.96 283.841 858.562 295.547Z" stroke="white" stroke-width="8" mask="url(#path-9-outside-9_0_7036)"/>
</svg>
