<svg width="841" height="395" viewBox="0 0 841 395" fill="none" xmlns="http://www.w3.org/2000/svg">
<mask id="path-1-outside-1_0_7025" maskUnits="userSpaceOnUse" x="-1" y="0" width="842" height="395" fill="black">
<rect fill="white" x="-1" width="842" height="395"/>
<path d="M5.955 361.037C5.955 361.037 19.4816 352.345 29.1137 321.47C29.1137 321.47 60.9656 294.454 87.0104 291.568C87.0104 291.568 102.449 284.823 100.537 234.651C100.537 234.651 114.064 199.916 106.344 185.452C98.6245 170.988 98.5549 172.901 108.743 169.041C118.932 165.182 125.643 148.771 125.643 148.771C125.643 148.771 151.688 139.835 150.749 127.909C149.81 115.983 141.152 98.5988 150.749 87.0207C160.346 75.4425 182.566 68.6973 183.54 55.172C184.513 41.6468 196.093 32.9893 218.278 38.761C240.463 44.5326 237.577 63.0994 285.841 36.9529H331.185C331.185 36.9529 359.177 27.1828 363.037 5C363.037 5 403.582 6.94708 375.59 34.9016L362.063 48.4268L358.203 81.249C358.203 81.249 404.521 159.41 454.698 154.577L515.481 153.604C515.481 153.604 538.639 138.166 560.824 147.797C560.824 147.797 596.536 141.991 603.282 141.991C603.282 141.991 612.949 131.386 640.906 142.964C640.906 142.964 674.67 124.641 674.67 140.079C674.67 155.516 692.996 193.136 728.707 169.98C728.707 169.98 751.866 155.516 752.84 148.736C752.84 148.736 764.419 143.903 800.131 158.402C800.131 158.402 816.543 166.121 830.035 163.235C843.527 160.349 837.755 170.954 809.763 177.699C781.771 184.444 747.033 193.136 742.199 195.084C737.366 197.031 737.366 218.24 710.347 229.818C710.347 229.818 716.154 268.412 687.189 246.229C687.189 246.229 655.337 228.844 655.337 220.187C655.337 211.529 633.152 185.452 610.932 211.495C610.932 211.495 579.08 232.739 555.921 233.677L514.437 253.948C514.437 253.948 488.393 253.948 467.146 269.385H426.601C426.601 269.385 421.768 292.542 385.117 287.709H347.493C347.493 287.709 323.361 280.964 311.782 283.849C311.782 283.849 308.896 306.032 315.641 314.725C315.641 314.725 299.229 323.417 291.509 323.417C283.79 323.417 248.078 304.12 226.867 323.417C205.655 342.714 205.62 350.433 205.62 350.433C205.62 350.433 210.454 377.448 191.155 390C191.155 390 152.592 380.89 149.636 375.466C149.636 375.466 118.584 380.404 99.3547 370.529C99.3547 370.529 68.3026 389.27 47.0912 380.404C25.8798 371.538 5.88546 368.582 5.88546 368.582C5.88546 368.582 1.64318 364.897 5.88546 361.072L5.955 361.037Z"/>
</mask>
<path d="M5.955 361.037C5.955 361.037 19.4816 352.345 29.1137 321.47C29.1137 321.47 60.9656 294.454 87.0104 291.568C87.0104 291.568 102.449 284.823 100.537 234.651C100.537 234.651 114.064 199.916 106.344 185.452C98.6245 170.988 98.5549 172.901 108.743 169.041C118.932 165.182 125.643 148.771 125.643 148.771C125.643 148.771 151.688 139.835 150.749 127.909C149.81 115.983 141.152 98.5988 150.749 87.0207C160.346 75.4425 182.566 68.6973 183.54 55.172C184.513 41.6468 196.093 32.9893 218.278 38.761C240.463 44.5326 237.577 63.0994 285.841 36.9529H331.185C331.185 36.9529 359.177 27.1828 363.037 5C363.037 5 403.582 6.94708 375.59 34.9016L362.063 48.4268L358.203 81.249C358.203 81.249 404.521 159.41 454.698 154.577L515.481 153.604C515.481 153.604 538.639 138.166 560.824 147.797C560.824 147.797 596.536 141.991 603.282 141.991C603.282 141.991 612.949 131.386 640.906 142.964C640.906 142.964 674.67 124.641 674.67 140.079C674.67 155.516 692.996 193.136 728.707 169.98C728.707 169.98 751.866 155.516 752.84 148.736C752.84 148.736 764.419 143.903 800.131 158.402C800.131 158.402 816.543 166.121 830.035 163.235C843.527 160.349 837.755 170.954 809.763 177.699C781.771 184.444 747.033 193.136 742.199 195.084C737.366 197.031 737.366 218.24 710.347 229.818C710.347 229.818 716.154 268.412 687.189 246.229C687.189 246.229 655.337 228.844 655.337 220.187C655.337 211.529 633.152 185.452 610.932 211.495C610.932 211.495 579.08 232.739 555.921 233.677L514.437 253.948C514.437 253.948 488.393 253.948 467.146 269.385H426.601C426.601 269.385 421.768 292.542 385.117 287.709H347.493C347.493 287.709 323.361 280.964 311.782 283.849C311.782 283.849 308.896 306.032 315.641 314.725C315.641 314.725 299.229 323.417 291.509 323.417C283.79 323.417 248.078 304.12 226.867 323.417C205.655 342.714 205.62 350.433 205.62 350.433C205.62 350.433 210.454 377.448 191.155 390C191.155 390 152.592 380.89 149.636 375.466C149.636 375.466 118.584 380.404 99.3547 370.529C99.3547 370.529 68.3026 389.27 47.0912 380.404C25.8798 371.538 5.88546 368.582 5.88546 368.582C5.88546 368.582 1.64318 364.897 5.88546 361.072L5.955 361.037Z" fill="#3A6883"/>
<path d="M5.955 361.037C5.955 361.037 19.4816 352.345 29.1137 321.47C29.1137 321.47 60.9656 294.454 87.0104 291.568C87.0104 291.568 102.449 284.823 100.537 234.651C100.537 234.651 114.064 199.916 106.344 185.452C98.6245 170.988 98.5549 172.901 108.743 169.041C118.932 165.182 125.643 148.771 125.643 148.771C125.643 148.771 151.688 139.835 150.749 127.909C149.81 115.983 141.152 98.5988 150.749 87.0207C160.346 75.4425 182.566 68.6973 183.54 55.172C184.513 41.6468 196.093 32.9893 218.278 38.761C240.463 44.5326 237.577 63.0994 285.841 36.9529H331.185C331.185 36.9529 359.177 27.1828 363.037 5C363.037 5 403.582 6.94708 375.59 34.9016L362.063 48.4268L358.203 81.249C358.203 81.249 404.521 159.41 454.698 154.577L515.481 153.604C515.481 153.604 538.639 138.166 560.824 147.797C560.824 147.797 596.536 141.991 603.282 141.991C603.282 141.991 612.949 131.386 640.906 142.964C640.906 142.964 674.67 124.641 674.67 140.079C674.67 155.516 692.996 193.136 728.707 169.98C728.707 169.98 751.866 155.516 752.84 148.736C752.84 148.736 764.419 143.903 800.131 158.402C800.131 158.402 816.543 166.121 830.035 163.235C843.527 160.349 837.755 170.954 809.763 177.699C781.771 184.444 747.033 193.136 742.199 195.084C737.366 197.031 737.366 218.24 710.347 229.818C710.347 229.818 716.154 268.412 687.189 246.229C687.189 246.229 655.337 228.844 655.337 220.187C655.337 211.529 633.152 185.452 610.932 211.495C610.932 211.495 579.08 232.739 555.921 233.677L514.437 253.948C514.437 253.948 488.393 253.948 467.146 269.385H426.601C426.601 269.385 421.768 292.542 385.117 287.709H347.493C347.493 287.709 323.361 280.964 311.782 283.849C311.782 283.849 308.896 306.032 315.641 314.725C315.641 314.725 299.229 323.417 291.509 323.417C283.79 323.417 248.078 304.12 226.867 323.417C205.655 342.714 205.62 350.433 205.62 350.433C205.62 350.433 210.454 377.448 191.155 390C191.155 390 152.592 380.89 149.636 375.466C149.636 375.466 118.584 380.404 99.3547 370.529C99.3547 370.529 68.3026 389.27 47.0912 380.404C25.8798 371.538 5.88546 368.582 5.88546 368.582C5.88546 368.582 1.64318 364.897 5.88546 361.072L5.955 361.037Z" stroke="#FFFEFE" stroke-width="8" mask="url(#path-1-outside-1_0_7025)"/>
</svg>
