<svg width="432" height="1013" viewBox="0 0 432 1013" fill="none" xmlns="http://www.w3.org/2000/svg">
<mask id="path-1-outside-1_0_7034" maskUnits="userSpaceOnUse" x="0" y="0" width="432" height="1013" fill="black">
<rect fill="white" width="432" height="1013"/>
<path d="M155.104 907.149V918.865L169.761 940.337L181.503 968.978C181.503 968.978 233.592 1004.79 256.326 1004.79C279.061 1004.79 293.759 994.367 310.622 1010L298.88 976.148L298.131 954.676L306.209 939.708V931.91L305.459 917.571L285.64 894.769L284.182 884.347C284.182 884.347 288.596 881.095 270.234 862.21C251.871 843.325 237.215 817.936 237.215 817.936L237.964 782.79C237.964 782.79 216.687 769.781 226.222 743.727C226.222 743.727 224.015 720.924 220.351 711.833C220.351 711.833 239.421 702.705 226.222 677.98L215.23 660.389L222.558 653.219L220.351 636.293C220.351 636.293 241.628 618.074 226.222 597.858L212.273 576.386L240.171 543.162C240.171 543.162 250.455 532.74 240.171 492.384C240.171 492.384 238.714 480.003 246.791 466.329C254.869 452.655 254.869 440.275 254.869 429.853C254.869 429.853 271.733 427.894 280.56 410.303C289.387 392.711 304.751 401.174 304.751 401.174L317.951 388.794V370.574C317.951 370.574 353.884 357.565 353.884 349.731C353.884 341.896 352.427 320.424 342.142 308.043L324.53 296.956L325.279 270.273C325.279 270.273 345.807 263.104 345.099 234.462C345.099 234.462 357.59 224.041 368.583 226.665C368.583 226.665 383.989 217.536 368.583 205.193C368.583 205.193 372.996 186.308 387.653 181.762C402.309 177.216 403.808 169.382 403.808 162.212C403.808 155.042 407.472 136.823 407.472 136.823L428 106.888V27.4306C428 27.4306 396.438 16.3436 393.524 4H358.298L337.77 23.5501C337.77 23.5501 323.822 20.9632 311.372 56.109C311.372 56.109 303.294 59.3612 326.028 106.259L331.15 155.079L284.932 177.882L221.85 178.547L203.529 207.854C203.529 207.854 221.142 220.234 204.987 239.747C188.831 259.26 167.554 269.682 212.315 302.906C212.315 302.906 235.049 325.043 219.643 342.635C204.237 360.226 185.167 349.804 185.167 349.804C185.167 349.804 169.761 349.139 155.104 338.717L126.499 349.139C126.499 349.139 124.292 366.065 148.526 377.152C172.759 388.239 214.564 424.051 204.279 461.783L206.486 503.471C206.486 503.471 191.829 545.786 166.888 565.336C166.888 565.336 141.822 556.208 126.499 559.46L120.67 540.575L97.1859 528.86C97.1859 528.86 106.721 500.218 75.1594 489.797L51.6755 482.627C51.6755 482.627 44.3472 495.008 46.5541 501.512L4 493.049C4 493.049 4 519.732 39.2258 547.08C74.4515 574.428 77.8242 592.241 130.205 570.51C130.205 570.51 156.603 569.845 152.231 588.102C147.859 606.358 159.56 611.532 159.56 611.532C159.56 611.532 139.74 638.215 147.068 650.596C147.068 650.596 125.042 672.733 125.042 703.333C125.042 703.333 111.842 723.511 113.3 728.722C114.757 733.933 123.584 747.607 115.507 767.785C115.507 767.785 112.592 802.303 141.197 871.301C141.197 871.301 137.533 887.562 155.146 907.112L155.104 907.149Z"/>
</mask>
<path d="M155.104 907.149V918.865L169.761 940.337L181.503 968.978C181.503 968.978 233.592 1004.79 256.326 1004.79C279.061 1004.79 293.759 994.367 310.622 1010L298.88 976.148L298.131 954.676L306.209 939.708V931.91L305.459 917.571L285.64 894.769L284.182 884.347C284.182 884.347 288.596 881.095 270.234 862.21C251.871 843.325 237.215 817.936 237.215 817.936L237.964 782.79C237.964 782.79 216.687 769.781 226.222 743.727C226.222 743.727 224.015 720.924 220.351 711.833C220.351 711.833 239.421 702.705 226.222 677.98L215.23 660.389L222.558 653.219L220.351 636.293C220.351 636.293 241.628 618.074 226.222 597.858L212.273 576.386L240.171 543.162C240.171 543.162 250.455 532.74 240.171 492.384C240.171 492.384 238.714 480.003 246.791 466.329C254.869 452.655 254.869 440.275 254.869 429.853C254.869 429.853 271.733 427.894 280.56 410.303C289.387 392.711 304.751 401.174 304.751 401.174L317.951 388.794V370.574C317.951 370.574 353.884 357.565 353.884 349.731C353.884 341.896 352.427 320.424 342.142 308.043L324.53 296.956L325.279 270.273C325.279 270.273 345.807 263.104 345.099 234.462C345.099 234.462 357.59 224.041 368.583 226.665C368.583 226.665 383.989 217.536 368.583 205.193C368.583 205.193 372.996 186.308 387.653 181.762C402.309 177.216 403.808 169.382 403.808 162.212C403.808 155.042 407.472 136.823 407.472 136.823L428 106.888V27.4306C428 27.4306 396.438 16.3436 393.524 4H358.298L337.77 23.5501C337.77 23.5501 323.822 20.9632 311.372 56.109C311.372 56.109 303.294 59.3612 326.028 106.259L331.15 155.079L284.932 177.882L221.85 178.547L203.529 207.854C203.529 207.854 221.142 220.234 204.987 239.747C188.831 259.26 167.554 269.682 212.315 302.906C212.315 302.906 235.049 325.043 219.643 342.635C204.237 360.226 185.167 349.804 185.167 349.804C185.167 349.804 169.761 349.139 155.104 338.717L126.499 349.139C126.499 349.139 124.292 366.065 148.526 377.152C172.759 388.239 214.564 424.051 204.279 461.783L206.486 503.471C206.486 503.471 191.829 545.786 166.888 565.336C166.888 565.336 141.822 556.208 126.499 559.46L120.67 540.575L97.1859 528.86C97.1859 528.86 106.721 500.218 75.1594 489.797L51.6755 482.627C51.6755 482.627 44.3472 495.008 46.5541 501.512L4 493.049C4 493.049 4 519.732 39.2258 547.08C74.4515 574.428 77.8242 592.241 130.205 570.51C130.205 570.51 156.603 569.845 152.231 588.102C147.859 606.358 159.56 611.532 159.56 611.532C159.56 611.532 139.74 638.215 147.068 650.596C147.068 650.596 125.042 672.733 125.042 703.333C125.042 703.333 111.842 723.511 113.3 728.722C114.757 733.933 123.584 747.607 115.507 767.785C115.507 767.785 112.592 802.303 141.197 871.301C141.197 871.301 137.533 887.562 155.146 907.112L155.104 907.149Z" fill="#3A6883"/>
<path d="M155.104 907.149V918.865L169.761 940.337L181.503 968.978C181.503 968.978 233.592 1004.79 256.326 1004.79C279.061 1004.79 293.759 994.367 310.622 1010L298.88 976.148L298.131 954.676L306.209 939.708V931.91L305.459 917.571L285.64 894.769L284.182 884.347C284.182 884.347 288.596 881.095 270.234 862.21C251.871 843.325 237.215 817.936 237.215 817.936L237.964 782.79C237.964 782.79 216.687 769.781 226.222 743.727C226.222 743.727 224.015 720.924 220.351 711.833C220.351 711.833 239.421 702.705 226.222 677.98L215.23 660.389L222.558 653.219L220.351 636.293C220.351 636.293 241.628 618.074 226.222 597.858L212.273 576.386L240.171 543.162C240.171 543.162 250.455 532.74 240.171 492.384C240.171 492.384 238.714 480.003 246.791 466.329C254.869 452.655 254.869 440.275 254.869 429.853C254.869 429.853 271.733 427.894 280.56 410.303C289.387 392.711 304.751 401.174 304.751 401.174L317.951 388.794V370.574C317.951 370.574 353.884 357.565 353.884 349.731C353.884 341.896 352.427 320.424 342.142 308.043L324.53 296.956L325.279 270.273C325.279 270.273 345.807 263.104 345.099 234.462C345.099 234.462 357.59 224.041 368.583 226.665C368.583 226.665 383.989 217.536 368.583 205.193C368.583 205.193 372.996 186.308 387.653 181.762C402.309 177.216 403.808 169.382 403.808 162.212C403.808 155.042 407.472 136.823 407.472 136.823L428 106.888V27.4306C428 27.4306 396.438 16.3436 393.524 4H358.298L337.77 23.5501C337.77 23.5501 323.822 20.9632 311.372 56.109C311.372 56.109 303.294 59.3612 326.028 106.259L331.15 155.079L284.932 177.882L221.85 178.547L203.529 207.854C203.529 207.854 221.142 220.234 204.987 239.747C188.831 259.26 167.554 269.682 212.315 302.906C212.315 302.906 235.049 325.043 219.643 342.635C204.237 360.226 185.167 349.804 185.167 349.804C185.167 349.804 169.761 349.139 155.104 338.717L126.499 349.139C126.499 349.139 124.292 366.065 148.526 377.152C172.759 388.239 214.564 424.051 204.279 461.783L206.486 503.471C206.486 503.471 191.829 545.786 166.888 565.336C166.888 565.336 141.822 556.208 126.499 559.46L120.67 540.575L97.1859 528.86C97.1859 528.86 106.721 500.218 75.1594 489.797L51.6755 482.627C51.6755 482.627 44.3472 495.008 46.5541 501.512L4 493.049C4 493.049 4 519.732 39.2258 547.08C74.4515 574.428 77.8242 592.241 130.205 570.51C130.205 570.51 156.603 569.845 152.231 588.102C147.859 606.358 159.56 611.532 159.56 611.532C159.56 611.532 139.74 638.215 147.068 650.596C147.068 650.596 125.042 672.733 125.042 703.333C125.042 703.333 111.842 723.511 113.3 728.722C114.757 733.933 123.584 747.607 115.507 767.785C115.507 767.785 112.592 802.303 141.197 871.301C141.197 871.301 137.533 887.562 155.146 907.112L155.104 907.149Z" stroke="white" strokeWidth="8" mask="url(#path-1-outside-1_0_7034)"/>
</svg>
