<svg width="809" height="718" viewBox="0 0 809 718" fill="none" xmlns="http://www.w3.org/2000/svg">
<mask id="path-1-outside-1_0_7030" maskUnits="userSpaceOnUse" x="0" y="0" width="809" height="718" fill="black">
<rect fill="white" width="809" height="718"/>
<path d="M68.4819 406.98C68.4819 406.98 60.44 425.392 53.5312 432.296C46.6224 439.201 10.9088 492.682 10.9088 492.682C10.9088 492.682 4 508.208 4 517.413V547.332L8.60585 559.424L9.73904 572.648L10.3239 582.987L13.76 606.001L53.4581 608.887C53.4581 608.887 106.425 613.49 133.476 637.637C133.476 637.637 184.688 631.317 197.958 658.35C197.958 658.35 215.796 675.044 225.008 692.872C234.22 710.699 250.34 703.794 250.34 703.794C250.34 703.794 286.017 695.173 326.885 713C326.885 713 355.653 709.566 364.28 687.1L352.181 660.067C352.181 660.067 349.293 657.181 364.28 645.126C379.267 633.07 405.148 588.758 405.148 588.758C405.148 588.758 449.452 554.237 466.157 549.634C466.157 549.634 470.178 534.693 466.157 520.299C462.136 505.906 439.692 498.454 440.24 484.645C440.24 484.645 393.048 452.425 390.745 429.41C388.443 406.396 375.21 398.359 370.019 404.095C364.828 409.83 365.413 428.826 365.413 428.826L331.454 430.543C331.454 430.543 320.086 425.209 327.726 417.94C327.726 417.94 332.587 409.939 332.953 398.834C333.319 387.729 361.1 390.505 361.1 390.505C361.1 390.505 380.547 391.564 382.301 372.459C384.056 353.353 382.301 347.8 385.08 346.083C387.858 344.366 392.39 342.942 392.39 348.531C392.39 354.12 392.756 388.131 392.756 388.131L422.986 388.825C422.986 388.825 425.765 388.825 426.459 381.518L436.548 380.824C436.548 380.824 448.026 408.588 465.755 408.588C465.755 408.588 480.011 415.894 481.729 432.881C481.729 432.881 525.156 438.105 537.658 437.74C550.159 437.374 570.666 418.999 570.666 418.999C570.666 418.999 585.617 420.387 586.64 407.2C586.64 407.2 610.255 389.848 615.847 368.294C621.44 346.741 630.433 325.918 636.354 323.142C642.276 320.366 642.971 296.767 642.971 296.767C642.971 296.767 663.478 268.638 683.619 273.862C683.619 273.862 693.708 280.547 702.043 273.204C710.377 265.862 727.046 255.45 749.307 256.473C749.307 256.473 755.704 256.108 770.655 236.454C785.606 216.801 787.324 217.641 799.753 216.362C799.753 216.362 784.29 200.873 788.092 180.16C791.893 159.447 799.021 150.716 791.93 146.88C784.838 143.045 766.269 133.437 782.389 120.834C782.389 120.834 790.797 116.633 797.559 116.962C804.322 117.29 800.447 94.7142 791.747 81.1612C783.047 67.6083 785.277 50.8406 785.277 50.8406C785.277 50.8406 753.95 45.3609 750.733 24.721C747.516 4.08101 749.454 4.04448 749.454 4.04448C749.454 4.04448 715.86 2.43712 698.753 18.5473C698.753 18.5473 679.379 25.342 657.739 16.1362C657.739 16.1362 642.569 30.8216 623.195 30.8216C603.821 30.8216 582.51 52.1192 582.51 52.1192C582.51 52.1192 543.433 53.069 531.809 68.2658C520.185 83.4627 486.591 101.838 476.941 85.0335C467.29 68.2293 432.71 57.5988 425.618 64.3936C425.618 64.3936 427.885 85.3623 398.824 81.1612C398.824 81.1612 375.246 106.331 356.202 111.811C337.157 117.29 325.861 129.565 290.331 121.491C290.331 121.491 222.522 142.46 191.524 175.703C160.526 208.946 103.72 224.107 85.626 222.828C67.5315 221.55 40.4082 222.171 40.4082 222.171C40.4082 222.171 21.6923 258.628 20.0839 279.268C20.0839 279.268 5.86427 298.959 13.6138 318.32C21.3633 337.681 27.8335 351.892 28.7839 360.586C28.7839 360.586 33.6091 368.988 39.4212 370.596C39.4212 370.596 50.5703 401.757 68.4088 406.98H68.4819Z"/>
</mask>
<path d="M68.4819 406.98C68.4819 406.98 60.44 425.392 53.5312 432.296C46.6224 439.201 10.9088 492.682 10.9088 492.682C10.9088 492.682 4 508.208 4 517.413V547.332L8.60585 559.424L9.73904 572.648L10.3239 582.987L13.76 606.001L53.4581 608.887C53.4581 608.887 106.425 613.49 133.476 637.637C133.476 637.637 184.688 631.317 197.958 658.35C197.958 658.35 215.796 675.044 225.008 692.872C234.22 710.699 250.34 703.794 250.34 703.794C250.34 703.794 286.017 695.173 326.885 713C326.885 713 355.653 709.566 364.28 687.1L352.181 660.067C352.181 660.067 349.293 657.181 364.28 645.126C379.267 633.07 405.148 588.758 405.148 588.758C405.148 588.758 449.452 554.237 466.157 549.634C466.157 549.634 470.178 534.693 466.157 520.299C462.136 505.906 439.692 498.454 440.24 484.645C440.24 484.645 393.048 452.425 390.745 429.41C388.443 406.396 375.21 398.359 370.019 404.095C364.828 409.83 365.413 428.826 365.413 428.826L331.454 430.543C331.454 430.543 320.086 425.209 327.726 417.94C327.726 417.94 332.587 409.939 332.953 398.834C333.319 387.729 361.1 390.505 361.1 390.505C361.1 390.505 380.547 391.564 382.301 372.459C384.056 353.353 382.301 347.8 385.08 346.083C387.858 344.366 392.39 342.942 392.39 348.531C392.39 354.12 392.756 388.131 392.756 388.131L422.986 388.825C422.986 388.825 425.765 388.825 426.459 381.518L436.548 380.824C436.548 380.824 448.026 408.588 465.755 408.588C465.755 408.588 480.011 415.894 481.729 432.881C481.729 432.881 525.156 438.105 537.658 437.74C550.159 437.374 570.666 418.999 570.666 418.999C570.666 418.999 585.617 420.387 586.64 407.2C586.64 407.2 610.255 389.848 615.847 368.294C621.44 346.741 630.433 325.918 636.354 323.142C642.276 320.366 642.971 296.767 642.971 296.767C642.971 296.767 663.478 268.638 683.619 273.862C683.619 273.862 693.708 280.547 702.043 273.204C710.377 265.862 727.046 255.45 749.307 256.473C749.307 256.473 755.704 256.108 770.655 236.454C785.606 216.801 787.324 217.641 799.753 216.362C799.753 216.362 784.29 200.873 788.092 180.16C791.893 159.447 799.021 150.716 791.93 146.88C784.838 143.045 766.269 133.437 782.389 120.834C782.389 120.834 790.797 116.633 797.559 116.962C804.322 117.29 800.447 94.7142 791.747 81.1612C783.047 67.6083 785.277 50.8406 785.277 50.8406C785.277 50.8406 753.95 45.3609 750.733 24.721C747.516 4.08101 749.454 4.04448 749.454 4.04448C749.454 4.04448 715.86 2.43712 698.753 18.5473C698.753 18.5473 679.379 25.342 657.739 16.1362C657.739 16.1362 642.569 30.8216 623.195 30.8216C603.821 30.8216 582.51 52.1192 582.51 52.1192C582.51 52.1192 543.433 53.069 531.809 68.2658C520.185 83.4627 486.591 101.838 476.941 85.0335C467.29 68.2293 432.71 57.5988 425.618 64.3936C425.618 64.3936 427.885 85.3623 398.824 81.1612C398.824 81.1612 375.246 106.331 356.202 111.811C337.157 117.29 325.861 129.565 290.331 121.491C290.331 121.491 222.522 142.46 191.524 175.703C160.526 208.946 103.72 224.107 85.626 222.828C67.5315 221.55 40.4082 222.171 40.4082 222.171C40.4082 222.171 21.6923 258.628 20.0839 279.268C20.0839 279.268 5.86427 298.959 13.6138 318.32C21.3633 337.681 27.8335 351.892 28.7839 360.586C28.7839 360.586 33.6091 368.988 39.4212 370.596C39.4212 370.596 50.5703 401.757 68.4088 406.98H68.4819Z" fill="#3A6883"/>
<path d="M68.4819 406.98C68.4819 406.98 60.44 425.392 53.5312 432.296C46.6224 439.201 10.9088 492.682 10.9088 492.682C10.9088 492.682 4 508.208 4 517.413V547.332L8.60585 559.424L9.73904 572.648L10.3239 582.987L13.76 606.001L53.4581 608.887C53.4581 608.887 106.425 613.49 133.476 637.637C133.476 637.637 184.688 631.317 197.958 658.35C197.958 658.35 215.796 675.044 225.008 692.872C234.22 710.699 250.34 703.794 250.34 703.794C250.34 703.794 286.017 695.173 326.885 713C326.885 713 355.653 709.566 364.28 687.1L352.181 660.067C352.181 660.067 349.293 657.181 364.28 645.126C379.267 633.07 405.148 588.758 405.148 588.758C405.148 588.758 449.452 554.237 466.157 549.634C466.157 549.634 470.178 534.693 466.157 520.299C462.136 505.906 439.692 498.454 440.24 484.645C440.24 484.645 393.048 452.425 390.745 429.41C388.443 406.396 375.21 398.359 370.019 404.095C364.828 409.83 365.413 428.826 365.413 428.826L331.454 430.543C331.454 430.543 320.086 425.209 327.726 417.94C327.726 417.94 332.587 409.939 332.953 398.834C333.319 387.729 361.1 390.505 361.1 390.505C361.1 390.505 380.547 391.564 382.301 372.459C384.056 353.353 382.301 347.8 385.08 346.083C387.858 344.366 392.39 342.942 392.39 348.531C392.39 354.12 392.756 388.131 392.756 388.131L422.986 388.825C422.986 388.825 425.765 388.825 426.459 381.518L436.548 380.824C436.548 380.824 448.026 408.588 465.755 408.588C465.755 408.588 480.011 415.894 481.729 432.881C481.729 432.881 525.156 438.105 537.658 437.74C550.159 437.374 570.666 418.999 570.666 418.999C570.666 418.999 585.617 420.387 586.64 407.2C586.64 407.2 610.255 389.848 615.847 368.294C621.44 346.741 630.433 325.918 636.354 323.142C642.276 320.366 642.971 296.767 642.971 296.767C642.971 296.767 663.478 268.638 683.619 273.862C683.619 273.862 693.708 280.547 702.043 273.204C710.377 265.862 727.046 255.45 749.307 256.473C749.307 256.473 755.704 256.108 770.655 236.454C785.606 216.801 787.324 217.641 799.753 216.362C799.753 216.362 784.29 200.873 788.092 180.16C791.893 159.447 799.021 150.716 791.93 146.88C784.838 143.045 766.269 133.437 782.389 120.834C782.389 120.834 790.797 116.633 797.559 116.962C804.322 117.29 800.447 94.7142 791.747 81.1612C783.047 67.6083 785.277 50.8406 785.277 50.8406C785.277 50.8406 753.95 45.3609 750.733 24.721C747.516 4.08101 749.454 4.04448 749.454 4.04448C749.454 4.04448 715.86 2.43712 698.753 18.5473C698.753 18.5473 679.379 25.342 657.739 16.1362C657.739 16.1362 642.569 30.8216 623.195 30.8216C603.821 30.8216 582.51 52.1192 582.51 52.1192C582.51 52.1192 543.433 53.069 531.809 68.2658C520.185 83.4627 486.591 101.838 476.941 85.0335C467.29 68.2293 432.71 57.5988 425.618 64.3936C425.618 64.3936 427.885 85.3623 398.824 81.1612C398.824 81.1612 375.246 106.331 356.202 111.811C337.157 117.29 325.861 129.565 290.331 121.491C290.331 121.491 222.522 142.46 191.524 175.703C160.526 208.946 103.72 224.107 85.626 222.828C67.5315 221.55 40.4082 222.171 40.4082 222.171C40.4082 222.171 21.6923 258.628 20.0839 279.268C20.0839 279.268 5.86427 298.959 13.6138 318.32C21.3633 337.681 27.8335 351.892 28.7839 360.586C28.7839 360.586 33.6091 368.988 39.4212 370.596C39.4212 370.596 50.5703 401.757 68.4088 406.98H68.4819Z" stroke="#FFFEFE" stroke-width="8" mask="url(#path-1-outside-1_0_7030)"/>
</svg>
