<svg width="795" height="759" viewBox="0 0 795 759" fill="none" xmlns="http://www.w3.org/2000/svg">
<mask id="path-1-outside-1_0_7028" maskUnits="userSpaceOnUse" x="-1" y="0" width="796" height="759" fill="black">
<rect fill="white" x="-1" width="796" height="759"/>
<path d="M6.34697 173.272C6.34697 173.272 40.7985 176.885 46.7851 145.65C46.7851 145.65 37.5604 122.432 34.36 119.233C31.1596 116.035 39.9701 112.836 39.9701 112.836C39.9701 112.836 69.6022 84.0102 76.003 64.4042C76.003 64.4042 90.8002 39.605 109.626 28.3908C128.452 17.1767 146.864 4.4196 153.265 4.00566C159.665 3.59171 150.064 26.0201 182.106 32.4174C214.148 38.8148 261.777 39.605 261.777 39.605C261.777 39.605 270.55 41.2232 278.382 52.3997C286.214 63.5763 323.037 107.229 330.643 107.229C330.643 107.229 336.253 110.841 345.44 110.427C345.44 110.427 350.259 112.836 349.845 122.432C349.431 132.028 378.272 175.266 378.272 175.266C378.272 175.266 413.891 222.08 423.53 228.477C423.53 228.477 419.539 253.69 425.525 260.502C425.525 260.502 426.73 282.516 448.757 294.935C448.757 294.935 475.565 348.559 487.199 356.161C498.834 363.763 474.774 363.349 472.402 367.375C472.402 367.375 475.603 391.798 475.603 396.991C475.603 396.991 504.444 404.593 524.437 441.396H558.324C558.324 441.396 571.652 451.293 573.121 456.223H597.18C597.18 456.223 600.08 468.115 595.448 471.878C590.817 475.641 590.817 513.31 608.476 511.579C626.135 509.848 631.368 505.784 631.368 505.784C631.368 505.784 653.395 502.886 660.059 508.117C666.724 513.348 682.085 528.965 682.085 528.965C682.085 528.965 675.12 571.827 638.334 588.046C638.334 588.046 631.971 609.759 659.796 617.888C687.62 626.016 702.116 650.928 705.881 664.25C709.647 677.571 732.84 679.302 741.538 672.378C741.538 672.378 746.771 668.615 757.201 670.346C757.201 670.346 760.665 690.027 781.261 689.463C781.261 689.463 798.882 703.085 786.72 703.65C774.559 704.214 752.833 703.349 754.302 722.466C755.77 741.582 757.201 744.179 747.637 745.647C738.074 747.114 731.974 748.845 730.544 750.275C729.113 751.705 716.349 752.608 716.349 747.077L709.383 747.378L708.818 736.954L686.792 737.819C686.792 737.819 683.893 745.647 683.893 748.544C683.893 751.442 673.463 756.372 668.832 754.641V730.895C668.832 730.895 677.831 718.138 676.362 698.156C674.894 678.173 651.738 672.943 651.738 672.943L621.88 672.378L586.224 636.741V614.727C586.224 614.727 591.156 611.829 587.391 605.469C583.626 599.11 545.635 591.546 545.635 591.546C545.635 591.546 528.24 585.186 525.039 566.333C521.839 547.479 498.645 550.979 498.645 550.979L490.513 553.877H470.52C470.52 553.877 428.199 565.467 424.998 571.563L402.671 571.262C402.671 571.262 380.343 558.317 364.944 559.371C364.944 559.371 363.889 561.478 353.347 560.199C342.804 558.919 336.479 547.141 327.631 546.501C318.782 545.861 301.688 533.443 301.274 531.938C300.86 530.432 279.775 528.776 279.775 528.776L255.715 515.718L257.598 503.714C257.598 503.714 246.641 493.591 246.415 486.855C246.19 480.119 243.027 471.238 263.284 461.981C283.54 452.723 282.26 453.777 282.26 453.777L281.846 428.075C281.846 428.075 291.56 414.603 298.714 409.748C305.868 404.894 305.454 386.153 305.454 386.153C305.454 386.153 339.83 352.21 315.77 334.937C291.711 317.664 269.157 275.479 269.157 275.479L232.898 273.786C232.898 273.786 220.021 244.697 213.282 242.589C206.542 240.482 171.3 242.175 171.3 242.175C171.3 242.175 153.792 222.569 138.806 221.102C138.806 221.102 125.929 209.925 122.767 202.549C119.604 195.174 79.0904 185.276 62.6742 186.744C62.6742 186.744 46.1074 183.809 41.4762 182.304C36.845 180.798 20.8053 176.809 20.8053 176.809L6.30932 176.17C6.30932 176.17 1.11335 174.965 6.30932 173.347L6.34697 173.272Z"/>
</mask>
<path d="M6.34697 173.272C6.34697 173.272 40.7985 176.885 46.7851 145.65C46.7851 145.65 37.5604 122.432 34.36 119.233C31.1596 116.035 39.9701 112.836 39.9701 112.836C39.9701 112.836 69.6022 84.0102 76.003 64.4042C76.003 64.4042 90.8002 39.605 109.626 28.3908C128.452 17.1767 146.864 4.4196 153.265 4.00566C159.665 3.59171 150.064 26.0201 182.106 32.4174C214.148 38.8148 261.777 39.605 261.777 39.605C261.777 39.605 270.55 41.2232 278.382 52.3997C286.214 63.5763 323.037 107.229 330.643 107.229C330.643 107.229 336.253 110.841 345.44 110.427C345.44 110.427 350.259 112.836 349.845 122.432C349.431 132.028 378.272 175.266 378.272 175.266C378.272 175.266 413.891 222.08 423.53 228.477C423.53 228.477 419.539 253.69 425.525 260.502C425.525 260.502 426.73 282.516 448.757 294.935C448.757 294.935 475.565 348.559 487.199 356.161C498.834 363.763 474.774 363.349 472.402 367.375C472.402 367.375 475.603 391.798 475.603 396.991C475.603 396.991 504.444 404.593 524.437 441.396H558.324C558.324 441.396 571.652 451.293 573.121 456.223H597.18C597.18 456.223 600.08 468.115 595.448 471.878C590.817 475.641 590.817 513.31 608.476 511.579C626.135 509.848 631.368 505.784 631.368 505.784C631.368 505.784 653.395 502.886 660.059 508.117C666.724 513.348 682.085 528.965 682.085 528.965C682.085 528.965 675.12 571.827 638.334 588.046C638.334 588.046 631.971 609.759 659.796 617.888C687.62 626.016 702.116 650.928 705.881 664.25C709.647 677.571 732.84 679.302 741.538 672.378C741.538 672.378 746.771 668.615 757.201 670.346C757.201 670.346 760.665 690.027 781.261 689.463C781.261 689.463 798.882 703.085 786.72 703.65C774.559 704.214 752.833 703.349 754.302 722.466C755.77 741.582 757.201 744.179 747.637 745.647C738.074 747.114 731.974 748.845 730.544 750.275C729.113 751.705 716.349 752.608 716.349 747.077L709.383 747.378L708.818 736.954L686.792 737.819C686.792 737.819 683.893 745.647 683.893 748.544C683.893 751.442 673.463 756.372 668.832 754.641V730.895C668.832 730.895 677.831 718.138 676.362 698.156C674.894 678.173 651.738 672.943 651.738 672.943L621.88 672.378L586.224 636.741V614.727C586.224 614.727 591.156 611.829 587.391 605.469C583.626 599.11 545.635 591.546 545.635 591.546C545.635 591.546 528.24 585.186 525.039 566.333C521.839 547.479 498.645 550.979 498.645 550.979L490.513 553.877H470.52C470.52 553.877 428.199 565.467 424.998 571.563L402.671 571.262C402.671 571.262 380.343 558.317 364.944 559.371C364.944 559.371 363.889 561.478 353.347 560.199C342.804 558.919 336.479 547.141 327.631 546.501C318.782 545.861 301.688 533.443 301.274 531.938C300.86 530.432 279.775 528.776 279.775 528.776L255.715 515.718L257.598 503.714C257.598 503.714 246.641 493.591 246.415 486.855C246.19 480.119 243.027 471.238 263.284 461.981C283.54 452.723 282.26 453.777 282.26 453.777L281.846 428.075C281.846 428.075 291.56 414.603 298.714 409.748C305.868 404.894 305.454 386.153 305.454 386.153C305.454 386.153 339.83 352.21 315.77 334.937C291.711 317.664 269.157 275.479 269.157 275.479L232.898 273.786C232.898 273.786 220.021 244.697 213.282 242.589C206.542 240.482 171.3 242.175 171.3 242.175C171.3 242.175 153.792 222.569 138.806 221.102C138.806 221.102 125.929 209.925 122.767 202.549C119.604 195.174 79.0904 185.276 62.6742 186.744C62.6742 186.744 46.1074 183.809 41.4762 182.304C36.845 180.798 20.8053 176.809 20.8053 176.809L6.30932 176.17C6.30932 176.17 1.11335 174.965 6.30932 173.347L6.34697 173.272Z" fill="#3A6883"/>
<path d="M6.34697 173.272C6.34697 173.272 40.7985 176.885 46.7851 145.65C46.7851 145.65 37.5604 122.432 34.36 119.233C31.1596 116.035 39.9701 112.836 39.9701 112.836C39.9701 112.836 69.6022 84.0102 76.003 64.4042C76.003 64.4042 90.8002 39.605 109.626 28.3908C128.452 17.1767 146.864 4.4196 153.265 4.00566C159.665 3.59171 150.064 26.0201 182.106 32.4174C214.148 38.8148 261.777 39.605 261.777 39.605C261.777 39.605 270.55 41.2232 278.382 52.3997C286.214 63.5763 323.037 107.229 330.643 107.229C330.643 107.229 336.253 110.841 345.44 110.427C345.44 110.427 350.259 112.836 349.845 122.432C349.431 132.028 378.272 175.266 378.272 175.266C378.272 175.266 413.891 222.08 423.53 228.477C423.53 228.477 419.539 253.69 425.525 260.502C425.525 260.502 426.73 282.516 448.757 294.935C448.757 294.935 475.565 348.559 487.199 356.161C498.834 363.763 474.774 363.349 472.402 367.375C472.402 367.375 475.603 391.798 475.603 396.991C475.603 396.991 504.444 404.593 524.437 441.396H558.324C558.324 441.396 571.652 451.293 573.121 456.223H597.18C597.18 456.223 600.08 468.115 595.448 471.878C590.817 475.641 590.817 513.31 608.476 511.579C626.135 509.848 631.368 505.784 631.368 505.784C631.368 505.784 653.395 502.886 660.059 508.117C666.724 513.348 682.085 528.965 682.085 528.965C682.085 528.965 675.12 571.827 638.334 588.046C638.334 588.046 631.971 609.759 659.796 617.888C687.62 626.016 702.116 650.928 705.881 664.25C709.647 677.571 732.84 679.302 741.538 672.378C741.538 672.378 746.771 668.615 757.201 670.346C757.201 670.346 760.665 690.027 781.261 689.463C781.261 689.463 798.882 703.085 786.72 703.65C774.559 704.214 752.833 703.349 754.302 722.466C755.77 741.582 757.201 744.179 747.637 745.647C738.074 747.114 731.974 748.845 730.544 750.275C729.113 751.705 716.349 752.608 716.349 747.077L709.383 747.378L708.818 736.954L686.792 737.819C686.792 737.819 683.893 745.647 683.893 748.544C683.893 751.442 673.463 756.372 668.832 754.641V730.895C668.832 730.895 677.831 718.138 676.362 698.156C674.894 678.173 651.738 672.943 651.738 672.943L621.88 672.378L586.224 636.741V614.727C586.224 614.727 591.156 611.829 587.391 605.469C583.626 599.11 545.635 591.546 545.635 591.546C545.635 591.546 528.24 585.186 525.039 566.333C521.839 547.479 498.645 550.979 498.645 550.979L490.513 553.877H470.52C470.52 553.877 428.199 565.467 424.998 571.563L402.671 571.262C402.671 571.262 380.343 558.317 364.944 559.371C364.944 559.371 363.889 561.478 353.347 560.199C342.804 558.919 336.479 547.141 327.631 546.501C318.782 545.861 301.688 533.443 301.274 531.938C300.86 530.432 279.775 528.776 279.775 528.776L255.715 515.718L257.598 503.714C257.598 503.714 246.641 493.591 246.415 486.855C246.19 480.119 243.027 471.238 263.284 461.981C283.54 452.723 282.26 453.777 282.26 453.777L281.846 428.075C281.846 428.075 291.56 414.603 298.714 409.748C305.868 404.894 305.454 386.153 305.454 386.153C305.454 386.153 339.83 352.21 315.77 334.937C291.711 317.664 269.157 275.479 269.157 275.479L232.898 273.786C232.898 273.786 220.021 244.697 213.282 242.589C206.542 240.482 171.3 242.175 171.3 242.175C171.3 242.175 153.792 222.569 138.806 221.102C138.806 221.102 125.929 209.925 122.767 202.549C119.604 195.174 79.0904 185.276 62.6742 186.744C62.6742 186.744 46.1074 183.809 41.4762 182.304C36.845 180.798 20.8053 176.809 20.8053 176.809L6.30932 176.17C6.30932 176.17 1.11335 174.965 6.30932 173.347L6.34697 173.272Z" stroke="white" strokeWidth="8" mask="url(#path-1-outside-1_0_7028)"/>
</svg>
