<svg width="239" height="259" viewBox="0 0 239 259" fill="none" xmlns="http://www.w3.org/2000/svg">
<mask id="path-1-outside-1_0_7035" maskUnits="userSpaceOnUse" x="-3.32918" y="-6.409" width="252.076" height="270.064" fill="black">
<rect fill="white" x="-3.32918" y="-6.409" width="252.076" height="270.064"/>
<path d="M10.5301 162.673L50.6818 146.392C50.6818 146.392 56.9637 182.753 69.5432 183.407C82.1228 184.061 91.9236 180.916 92.6697 166.569L95.5884 110.444L81.9781 86.9165L66.1898 62.5726L62.3711 50.6125L65.6547 30.1657L94.8017 11.1106L129.993 4.83423L149.434 16.1541C149.434 16.1541 156.861 30.5041 111.524 46.5617C111.524 46.5617 103.661 69.6756 135.995 61.0952C168.33 52.5147 172.608 55.6424 172.608 55.6424L176.913 72.7822C176.913 72.7822 98.8697 90.0441 115.201 104.857C131.532 119.67 133.985 143.367 154.668 144.443C154.668 144.443 175.495 157.288 195.021 152.446C214.548 147.604 224.648 153.237 225.459 165.79C226.271 178.343 234.49 191.985 234.49 191.985L227.677 208.546C227.677 208.546 209.218 235.561 143.849 238.019L140.796 254.026L118.605 252.872L103.592 241.782L65.5475 245.708L57.6247 198.204C57.6247 198.204 37.1793 178.022 18.8825 187.379C0.585782 196.737 2.22957 166.036 10.5301 162.673Z"/>
</mask>
<path d="M10.5301 162.673L50.6818 146.392C50.6818 146.392 56.9637 182.753 69.5432 183.407C82.1228 184.061 91.9236 180.916 92.6697 166.569L95.5884 110.444L81.9781 86.9165L66.1898 62.5726L62.3711 50.6125L65.6547 30.1657L94.8017 11.1106L129.993 4.83423L149.434 16.1541C149.434 16.1541 156.861 30.5041 111.524 46.5617C111.524 46.5617 103.661 69.6756 135.995 61.0952C168.33 52.5147 172.608 55.6424 172.608 55.6424L176.913 72.7822C176.913 72.7822 98.8697 90.0441 115.201 104.857C131.532 119.67 133.985 143.367 154.668 144.443C154.668 144.443 175.495 157.288 195.021 152.446C214.548 147.604 224.648 153.237 225.459 165.79C226.271 178.343 234.49 191.985 234.49 191.985L227.677 208.546C227.677 208.546 209.218 235.561 143.849 238.019L140.796 254.026L118.605 252.872L103.592 241.782L65.5475 245.708L57.6247 198.204C57.6247 198.204 37.1793 178.022 18.8825 187.379C0.585782 196.737 2.22957 166.036 10.5301 162.673Z" fill="#3A6883"/>
<path d="M10.5301 162.673L50.6818 146.392C50.6818 146.392 56.9637 182.753 69.5432 183.407C82.1228 184.061 91.9236 180.916 92.6697 166.569L95.5884 110.444L81.9781 86.9165L66.1898 62.5726L62.3711 50.6125L65.6547 30.1657L94.8017 11.1106L129.993 4.83423L149.434 16.1541C149.434 16.1541 156.861 30.5041 111.524 46.5617C111.524 46.5617 103.661 69.6756 135.995 61.0952C168.33 52.5147 172.608 55.6424 172.608 55.6424L176.913 72.7822C176.913 72.7822 98.8697 90.0441 115.201 104.857C131.532 119.67 133.985 143.367 154.668 144.443C154.668 144.443 175.495 157.288 195.021 152.446C214.548 147.604 224.648 153.237 225.459 165.79C226.271 178.343 234.49 191.985 234.49 191.985L227.677 208.546C227.677 208.546 209.218 235.561 143.849 238.019L140.796 254.026L118.605 252.872L103.592 241.782L65.5475 245.708L57.6247 198.204C57.6247 198.204 37.1793 178.022 18.8825 187.379C0.585782 196.737 2.22957 166.036 10.5301 162.673Z" stroke="white" strokeWidth="8" mask="url(#path-1-outside-1_0_7035)"/>
</svg>
