<svg width="992" height="1238" viewBox="0 0 992 1238" fill="none" xmlns="http://www.w3.org/2000/svg">
<mask id="path-1-outside-1_0_7027" maskUnits="userSpaceOnUse" x="-1" y="0" width="993" height="1238" fill="black">
<rect fill="white" x="-1" width="993" height="1238"/>
<path d="M294.794 1229C294.794 1229 330.938 1215.44 344.976 1207.4C344.976 1207.4 389.263 1207.4 418.775 1194.98C418.775 1194.98 439.813 1183.29 450.866 1184.02C450.866 1184.02 436.46 1165.34 428.354 1158.77C420.249 1152.19 417.301 1141.55 416.933 1134.98C416.564 1128.4 404.774 1111.92 393.316 1111.92C381.857 1111.92 359.014 1109.36 350.871 1080.45C350.871 1080.45 349.766 1069.13 335.728 1068.03C321.691 1066.93 308.058 1072.05 298.11 1086.34C298.11 1086.34 277.809 1086.7 271.546 1090.36C271.546 1090.36 256.034 1070.59 255.666 1065.47C255.297 1060.36 230.207 1045.7 230.207 1045.7C230.207 1045.7 215.064 1015.7 210.274 1014.24C205.484 1012.78 194.394 1015.34 189.236 1005.47C184.078 995.602 181.867 982.045 144.949 951.312C144.949 951.312 113.226 898.618 110.279 880.675C107.331 862.733 104.015 837.116 100.331 821.038C96.6466 804.959 101.436 775.286 114 763.227C114 763.227 116.948 736.515 93.3306 719.303C93.3306 719.303 87.4356 688.571 88.9093 673.186C88.9093 673.186 90.7516 664.781 73.7664 655.974V586.068C73.7664 586.068 93.6991 571.78 92.5938 549.124C91.4884 526.467 90.7515 509.621 90.7515 509.621C90.7515 509.621 125.79 509.621 131.722 482.543C137.654 455.465 134.301 444.502 136.144 441.177C137.986 437.851 143.881 426.889 136.88 417.387C136.88 417.387 133.564 410.444 143.144 402.368C152.723 394.293 157.182 377.848 150.513 364.693C143.844 351.538 201.431 295.518 201.431 295.518C201.431 295.518 218.048 269.901 225.785 247.208C225.785 247.208 250.139 238.438 256.771 213.918C256.771 213.918 298.479 167.801 344.939 161.589C344.939 161.589 348.992 165.974 358.203 161.589C367.414 157.204 378.136 138.53 406.911 136.338C435.686 134.145 453.04 138.896 467.409 133.414C481.778 127.933 530.855 137.434 533.802 148.433C536.75 159.433 571.788 170.542 571.788 170.542L572.894 186.803C572.894 186.803 580.668 196.451 587.631 185.159L586.526 168.605C586.526 168.605 594.595 164.183 599.569 170.798C604.543 177.412 614.307 184.574 631.255 184.026C631.255 184.026 659.883 222.067 679.042 209.935C698.201 197.803 745.73 186.219 745.73 186.219C745.73 186.219 772.957 214.32 788.248 208.802C803.538 203.284 832.166 201.347 832.166 201.347C832.166 201.347 830.766 187.571 834.377 185.086C837.987 182.601 851.62 164.695 886.069 170.469C886.069 170.469 887.727 144.304 925.234 152.015C925.234 152.015 942.477 161.662 946.899 161.662C946.899 161.662 1031.75 167.728 957.62 123.731C957.62 123.731 966.315 100.599 939.309 101.038C912.302 101.476 874.352 68.807 874.352 68.807L873.91 61.535C873.91 61.535 841.414 42.4597 836.403 35.2243C836.403 35.2243 803.464 27.0387 791.122 20.2418C778.779 13.4449 750.851 23.421 750.851 23.421L734.824 14.7969C734.824 14.7969 692.748 32.9586 678.563 25.2481C664.378 17.5376 639.655 13.0063 636.487 8C636.487 8 621.491 30.2545 595.111 30.693C595.111 30.693 575.62 30.693 568.767 39.7556C568.767 39.7556 539.955 30.693 522.565 46.5525C505.174 62.412 486.863 93.2906 466.304 81.4873C466.304 81.4873 451.677 68.7705 428.317 81.4873C428.317 81.4873 434.249 54.7015 411.848 57.4422C389.447 60.1829 366.088 54.7015 366.088 54.7015C366.088 54.7015 364.246 37.9284 347.776 37.9284C331.307 37.9284 307.985 31.57 307.985 31.57C307.985 31.57 297.926 25.6866 270.919 48.3431C243.913 70.9995 228.843 79.6602 200.915 72.8632C200.915 72.8632 193.141 72.4247 193.141 85.5801C193.141 98.7354 173.024 124.169 173.024 124.169L169.377 165.024C169.377 165.024 130.47 182.272 148.339 199.045C148.339 199.045 149.702 212.675 135.075 214.028C120.448 215.38 118.606 236.282 118.606 236.282C118.606 236.282 109.91 253.055 103.979 253.53L102.136 287.551C102.136 287.551 119.969 287.551 126.38 323.4C126.38 323.4 133.233 340.173 112.195 347.92C91.1568 355.667 95.2834 377.41 95.2834 377.41C95.2834 377.41 86.6987 389.213 73.8401 387.386C73.8401 387.386 62.8237 394.658 60.0604 402.368C57.2971 410.079 41.3067 413.697 41.3067 413.697L37.6592 446.366C37.6592 446.366 23.9163 464.527 28.5218 499.462C33.1273 534.397 9.28918 547.114 9.28918 547.114C9.28918 547.114 -2.61147 559.831 9.28918 570.245C21.1898 580.66 25.7585 609.273 12.0525 615.156C12.0525 615.156 7.48382 623.342 12.9736 633.757C12.9736 633.757 -0.769268 645.56 10.6893 654.184C22.1478 662.808 24.4321 677.315 12.5315 691.384C12.5315 691.384 8.40492 698.181 12.9736 704.54C17.5423 710.898 13.4157 745.394 13.4157 745.394C13.4157 745.394 14.3368 758.55 22.5531 763.556L23.9163 798.966L68.3135 859.334C68.3135 859.334 64.6659 881.114 79.7352 887.472C79.7352 887.472 89.7936 917.876 82.4985 926.938C75.2033 936.001 80.6563 960.521 80.6563 960.521L91.6358 991.363C91.6358 991.363 96.2045 1024.51 93.478 1032.22C90.7515 1039.93 117.279 1050.82 117.279 1050.82C117.279 1050.82 107.221 1087.1 112.711 1094.85C118.2 1102.6 123.69 1096.2 121.848 1115.72C121.848 1115.72 148.376 1112.98 155.266 1138.41L175.383 1139.76C175.383 1139.76 195.499 1153.39 203.752 1145.65C203.752 1145.65 227.075 1163.81 225.712 1191.03C225.712 1191.03 246.75 1207.81 250.434 1207.81C254.118 1207.81 279.246 1185.55 287.499 1199.62C295.752 1213.69 296.305 1217.74 294.868 1228.89L294.794 1229Z"/>
</mask>
<path d="M294.794 1229C294.794 1229 330.938 1215.44 344.976 1207.4C344.976 1207.4 389.263 1207.4 418.775 1194.98C418.775 1194.98 439.813 1183.29 450.866 1184.02C450.866 1184.02 436.46 1165.34 428.354 1158.77C420.249 1152.19 417.301 1141.55 416.933 1134.98C416.564 1128.4 404.774 1111.92 393.316 1111.92C381.857 1111.92 359.014 1109.36 350.871 1080.45C350.871 1080.45 349.766 1069.13 335.728 1068.03C321.691 1066.93 308.058 1072.05 298.11 1086.34C298.11 1086.34 277.809 1086.7 271.546 1090.36C271.546 1090.36 256.034 1070.59 255.666 1065.47C255.297 1060.36 230.207 1045.7 230.207 1045.7C230.207 1045.7 215.064 1015.7 210.274 1014.24C205.484 1012.78 194.394 1015.34 189.236 1005.47C184.078 995.602 181.867 982.045 144.949 951.312C144.949 951.312 113.226 898.618 110.279 880.675C107.331 862.733 104.015 837.116 100.331 821.038C96.6466 804.959 101.436 775.286 114 763.227C114 763.227 116.948 736.515 93.3306 719.303C93.3306 719.303 87.4356 688.571 88.9093 673.186C88.9093 673.186 90.7516 664.781 73.7664 655.974V586.068C73.7664 586.068 93.6991 571.78 92.5938 549.124C91.4884 526.467 90.7515 509.621 90.7515 509.621C90.7515 509.621 125.79 509.621 131.722 482.543C137.654 455.465 134.301 444.502 136.144 441.177C137.986 437.851 143.881 426.889 136.88 417.387C136.88 417.387 133.564 410.444 143.144 402.368C152.723 394.293 157.182 377.848 150.513 364.693C143.844 351.538 201.431 295.518 201.431 295.518C201.431 295.518 218.048 269.901 225.785 247.208C225.785 247.208 250.139 238.438 256.771 213.918C256.771 213.918 298.479 167.801 344.939 161.589C344.939 161.589 348.992 165.974 358.203 161.589C367.414 157.204 378.136 138.53 406.911 136.338C435.686 134.145 453.04 138.896 467.409 133.414C481.778 127.933 530.855 137.434 533.802 148.433C536.75 159.433 571.788 170.542 571.788 170.542L572.894 186.803C572.894 186.803 580.668 196.451 587.631 185.159L586.526 168.605C586.526 168.605 594.595 164.183 599.569 170.798C604.543 177.412 614.307 184.574 631.255 184.026C631.255 184.026 659.883 222.067 679.042 209.935C698.201 197.803 745.73 186.219 745.73 186.219C745.73 186.219 772.957 214.32 788.248 208.802C803.538 203.284 832.166 201.347 832.166 201.347C832.166 201.347 830.766 187.571 834.377 185.086C837.987 182.601 851.62 164.695 886.069 170.469C886.069 170.469 887.727 144.304 925.234 152.015C925.234 152.015 942.477 161.662 946.899 161.662C946.899 161.662 1031.75 167.728 957.62 123.731C957.62 123.731 966.315 100.599 939.309 101.038C912.302 101.476 874.352 68.807 874.352 68.807L873.91 61.535C873.91 61.535 841.414 42.4597 836.403 35.2243C836.403 35.2243 803.464 27.0387 791.122 20.2418C778.779 13.4449 750.851 23.421 750.851 23.421L734.824 14.7969C734.824 14.7969 692.748 32.9586 678.563 25.2481C664.378 17.5376 639.655 13.0063 636.487 8C636.487 8 621.491 30.2545 595.111 30.693C595.111 30.693 575.62 30.693 568.767 39.7556C568.767 39.7556 539.955 30.693 522.565 46.5525C505.174 62.412 486.863 93.2906 466.304 81.4873C466.304 81.4873 451.677 68.7705 428.317 81.4873C428.317 81.4873 434.249 54.7015 411.848 57.4422C389.447 60.1829 366.088 54.7015 366.088 54.7015C366.088 54.7015 364.246 37.9284 347.776 37.9284C331.307 37.9284 307.985 31.57 307.985 31.57C307.985 31.57 297.926 25.6866 270.919 48.3431C243.913 70.9995 228.843 79.6602 200.915 72.8632C200.915 72.8632 193.141 72.4247 193.141 85.5801C193.141 98.7354 173.024 124.169 173.024 124.169L169.377 165.024C169.377 165.024 130.47 182.272 148.339 199.045C148.339 199.045 149.702 212.675 135.075 214.028C120.448 215.38 118.606 236.282 118.606 236.282C118.606 236.282 109.91 253.055 103.979 253.53L102.136 287.551C102.136 287.551 119.969 287.551 126.38 323.4C126.38 323.4 133.233 340.173 112.195 347.92C91.1568 355.667 95.2834 377.41 95.2834 377.41C95.2834 377.41 86.6987 389.213 73.8401 387.386C73.8401 387.386 62.8237 394.658 60.0604 402.368C57.2971 410.079 41.3067 413.697 41.3067 413.697L37.6592 446.366C37.6592 446.366 23.9163 464.527 28.5218 499.462C33.1273 534.397 9.28918 547.114 9.28918 547.114C9.28918 547.114 -2.61147 559.831 9.28918 570.245C21.1898 580.66 25.7585 609.273 12.0525 615.156C12.0525 615.156 7.48382 623.342 12.9736 633.757C12.9736 633.757 -0.769268 645.56 10.6893 654.184C22.1478 662.808 24.4321 677.315 12.5315 691.384C12.5315 691.384 8.40492 698.181 12.9736 704.54C17.5423 710.898 13.4157 745.394 13.4157 745.394C13.4157 745.394 14.3368 758.55 22.5531 763.556L23.9163 798.966L68.3135 859.334C68.3135 859.334 64.6659 881.114 79.7352 887.472C79.7352 887.472 89.7936 917.876 82.4985 926.938C75.2033 936.001 80.6563 960.521 80.6563 960.521L91.6358 991.363C91.6358 991.363 96.2045 1024.51 93.478 1032.22C90.7515 1039.93 117.279 1050.82 117.279 1050.82C117.279 1050.82 107.221 1087.1 112.711 1094.85C118.2 1102.6 123.69 1096.2 121.848 1115.72C121.848 1115.72 148.376 1112.98 155.266 1138.41L175.383 1139.76C175.383 1139.76 195.499 1153.39 203.752 1145.65C203.752 1145.65 227.075 1163.81 225.712 1191.03C225.712 1191.03 246.75 1207.81 250.434 1207.81C254.118 1207.81 279.246 1185.55 287.499 1199.62C295.752 1213.69 296.305 1217.74 294.868 1228.89L294.794 1229Z" fill="#70A3BF"/>
<path d="M294.794 1229C294.794 1229 330.938 1215.44 344.976 1207.4C344.976 1207.4 389.263 1207.4 418.775 1194.98C418.775 1194.98 439.813 1183.29 450.866 1184.02C450.866 1184.02 436.46 1165.34 428.354 1158.77C420.249 1152.19 417.301 1141.55 416.933 1134.98C416.564 1128.4 404.774 1111.92 393.316 1111.92C381.857 1111.92 359.014 1109.36 350.871 1080.45C350.871 1080.45 349.766 1069.13 335.728 1068.03C321.691 1066.93 308.058 1072.05 298.11 1086.34C298.11 1086.34 277.809 1086.7 271.546 1090.36C271.546 1090.36 256.034 1070.59 255.666 1065.47C255.297 1060.36 230.207 1045.7 230.207 1045.7C230.207 1045.7 215.064 1015.7 210.274 1014.24C205.484 1012.78 194.394 1015.34 189.236 1005.47C184.078 995.602 181.867 982.045 144.949 951.312C144.949 951.312 113.226 898.618 110.279 880.675C107.331 862.733 104.015 837.116 100.331 821.038C96.6466 804.959 101.436 775.286 114 763.227C114 763.227 116.948 736.515 93.3306 719.303C93.3306 719.303 87.4356 688.571 88.9093 673.186C88.9093 673.186 90.7516 664.781 73.7664 655.974V586.068C73.7664 586.068 93.6991 571.78 92.5938 549.124C91.4884 526.467 90.7515 509.621 90.7515 509.621C90.7515 509.621 125.79 509.621 131.722 482.543C137.654 455.465 134.301 444.502 136.144 441.177C137.986 437.851 143.881 426.889 136.88 417.387C136.88 417.387 133.564 410.444 143.144 402.368C152.723 394.293 157.182 377.848 150.513 364.693C143.844 351.538 201.431 295.518 201.431 295.518C201.431 295.518 218.048 269.901 225.785 247.208C225.785 247.208 250.139 238.438 256.771 213.918C256.771 213.918 298.479 167.801 344.939 161.589C344.939 161.589 348.992 165.974 358.203 161.589C367.414 157.204 378.136 138.53 406.911 136.338C435.686 134.145 453.04 138.896 467.409 133.414C481.778 127.933 530.855 137.434 533.802 148.433C536.75 159.433 571.788 170.542 571.788 170.542L572.894 186.803C572.894 186.803 580.668 196.451 587.631 185.159L586.526 168.605C586.526 168.605 594.595 164.183 599.569 170.798C604.543 177.412 614.307 184.574 631.255 184.026C631.255 184.026 659.883 222.067 679.042 209.935C698.201 197.803 745.73 186.219 745.73 186.219C745.73 186.219 772.957 214.32 788.248 208.802C803.538 203.284 832.166 201.347 832.166 201.347C832.166 201.347 830.766 187.571 834.377 185.086C837.987 182.601 851.62 164.695 886.069 170.469C886.069 170.469 887.727 144.304 925.234 152.015C925.234 152.015 942.477 161.662 946.899 161.662C946.899 161.662 1031.75 167.728 957.62 123.731C957.62 123.731 966.315 100.599 939.309 101.038C912.302 101.476 874.352 68.807 874.352 68.807L873.91 61.535C873.91 61.535 841.414 42.4597 836.403 35.2243C836.403 35.2243 803.464 27.0387 791.122 20.2418C778.779 13.4449 750.851 23.421 750.851 23.421L734.824 14.7969C734.824 14.7969 692.748 32.9586 678.563 25.2481C664.378 17.5376 639.655 13.0063 636.487 8C636.487 8 621.491 30.2545 595.111 30.693C595.111 30.693 575.62 30.693 568.767 39.7556C568.767 39.7556 539.955 30.693 522.565 46.5525C505.174 62.412 486.863 93.2906 466.304 81.4873C466.304 81.4873 451.677 68.7705 428.317 81.4873C428.317 81.4873 434.249 54.7015 411.848 57.4422C389.447 60.1829 366.088 54.7015 366.088 54.7015C366.088 54.7015 364.246 37.9284 347.776 37.9284C331.307 37.9284 307.985 31.57 307.985 31.57C307.985 31.57 297.926 25.6866 270.919 48.3431C243.913 70.9995 228.843 79.6602 200.915 72.8632C200.915 72.8632 193.141 72.4247 193.141 85.5801C193.141 98.7354 173.024 124.169 173.024 124.169L169.377 165.024C169.377 165.024 130.47 182.272 148.339 199.045C148.339 199.045 149.702 212.675 135.075 214.028C120.448 215.38 118.606 236.282 118.606 236.282C118.606 236.282 109.91 253.055 103.979 253.53L102.136 287.551C102.136 287.551 119.969 287.551 126.38 323.4C126.38 323.4 133.233 340.173 112.195 347.92C91.1568 355.667 95.2834 377.41 95.2834 377.41C95.2834 377.41 86.6987 389.213 73.8401 387.386C73.8401 387.386 62.8237 394.658 60.0604 402.368C57.2971 410.079 41.3067 413.697 41.3067 413.697L37.6592 446.366C37.6592 446.366 23.9163 464.527 28.5218 499.462C33.1273 534.397 9.28918 547.114 9.28918 547.114C9.28918 547.114 -2.61147 559.831 9.28918 570.245C21.1898 580.66 25.7585 609.273 12.0525 615.156C12.0525 615.156 7.48382 623.342 12.9736 633.757C12.9736 633.757 -0.769268 645.56 10.6893 654.184C22.1478 662.808 24.4321 677.315 12.5315 691.384C12.5315 691.384 8.40492 698.181 12.9736 704.54C17.5423 710.898 13.4157 745.394 13.4157 745.394C13.4157 745.394 14.3368 758.55 22.5531 763.556L23.9163 798.966L68.3135 859.334C68.3135 859.334 64.6659 881.114 79.7352 887.472C79.7352 887.472 89.7936 917.876 82.4985 926.938C75.2033 936.001 80.6563 960.521 80.6563 960.521L91.6358 991.363C91.6358 991.363 96.2045 1024.51 93.478 1032.22C90.7515 1039.93 117.279 1050.82 117.279 1050.82C117.279 1050.82 107.221 1087.1 112.711 1094.85C118.2 1102.6 123.69 1096.2 121.848 1115.72C121.848 1115.72 148.376 1112.98 155.266 1138.41L175.383 1139.76C175.383 1139.76 195.499 1153.39 203.752 1145.65C203.752 1145.65 227.075 1163.81 225.712 1191.03C225.712 1191.03 246.75 1207.81 250.434 1207.81C254.118 1207.81 279.246 1185.55 287.499 1199.62C295.752 1213.69 296.305 1217.74 294.868 1228.89L294.794 1229Z" stroke="#FCFBFB" strokeWidth="8" mask="url(#path-1-outside-1_0_7027)"/>
</svg>
