<svg width="561" height="738" viewBox="0 0 561 738" fill="none" xmlns="http://www.w3.org/2000/svg">
<mask id="path-1-outside-1_0_7032" maskUnits="userSpaceOnUse" x="0" y="0" width="561" height="738" fill="black">
<rect fill="white" width="561" height="738"/>
<path d="M9.62041 285.308C9.62041 285.308 11.0004 268.738 24.3504 260.458C37.7004 252.178 53.8004 229.168 56.5604 220.418C56.5604 220.418 73.1304 225.938 90.6204 222.718C90.6204 222.718 101.66 195.108 118.69 196.948C118.69 196.948 138.94 168.418 123.29 152.768C107.64 137.118 93.3804 119.638 67.1404 107.668C67.1404 107.668 61.6204 104.448 80.0304 98.9277C98.4404 93.4077 93.8404 77.2977 93.8404 77.2977C93.8404 77.2977 102.12 75.4577 118.69 79.1377C118.69 79.1377 130.66 60.7277 136.18 58.8877C141.7 57.0477 168.85 50.1477 177.14 48.3077C185.43 46.4677 213.96 29.8977 213.96 29.8977C213.96 29.8977 285.29 21.1577 299.56 13.7877C313.83 6.42771 314.75 1.81771 324.87 5.04771C324.87 5.04771 336.38 39.5677 324.87 49.6877C313.36 59.8077 306.1 94.3277 329.98 102.148C353.86 109.968 367.67 139.888 365.82 166.578C365.82 166.578 381.47 170.718 385.61 197.408C385.61 197.408 391.13 206.608 406.32 194.188C421.51 181.768 427.95 181.298 427.95 181.298C427.95 181.298 462.01 161.968 494.22 161.968V190.038C494.22 190.038 523.67 191.418 526.89 203.388L517.69 202.928C517.69 202.928 514.47 305.098 558.65 326.268H514.93C514.93 326.268 483.18 389.318 483.64 413.708C483.64 413.708 501.59 449.608 501.59 466.628C501.59 466.628 519.08 481.818 526.9 504.368L541.63 515.408C541.63 515.408 518.62 560.508 487.79 595.948C487.79 595.948 470.3 631.848 484.11 669.578C484.11 669.578 487.33 716.518 491.47 721.118L470.76 725.718L463.4 732.618C463.4 732.618 440.39 738.598 416.46 724.338C392.53 710.068 364.92 691.668 364.92 691.668L352.49 686.148L246.18 555.448L233.75 539.798L222.71 525.988L215.81 515.868L198.32 512.188C198.32 512.188 185.43 554.528 181.29 559.128C181.29 559.128 171.63 601.928 159.66 614.808L117.32 596.858C117.32 596.858 40.9304 612.048 5.95041 572.928C5.95041 572.928 18.8404 557.738 5.95041 530.588C5.95041 530.588 1.35041 519.548 12.3904 519.548C23.4304 519.548 39.0804 508.968 29.4204 487.798C19.7604 466.628 9.63041 463.408 9.63041 463.408C9.63041 463.408 1.81041 452.368 23.9004 446.378C45.9904 440.388 56.5704 440.858 56.5704 440.858C56.5704 440.858 56.5704 408.648 40.0004 397.138C40.0004 397.138 46.4404 372.288 30.8004 355.258C30.8004 355.258 47.3704 300.958 26.6604 289.908C26.6604 289.908 15.6204 292.208 9.63041 285.308H9.62041Z"/>
</mask>
<path d="M9.62041 285.308C9.62041 285.308 11.0004 268.738 24.3504 260.458C37.7004 252.178 53.8004 229.168 56.5604 220.418C56.5604 220.418 73.1304 225.938 90.6204 222.718C90.6204 222.718 101.66 195.108 118.69 196.948C118.69 196.948 138.94 168.418 123.29 152.768C107.64 137.118 93.3804 119.638 67.1404 107.668C67.1404 107.668 61.6204 104.448 80.0304 98.9277C98.4404 93.4077 93.8404 77.2977 93.8404 77.2977C93.8404 77.2977 102.12 75.4577 118.69 79.1377C118.69 79.1377 130.66 60.7277 136.18 58.8877C141.7 57.0477 168.85 50.1477 177.14 48.3077C185.43 46.4677 213.96 29.8977 213.96 29.8977C213.96 29.8977 285.29 21.1577 299.56 13.7877C313.83 6.42771 314.75 1.81771 324.87 5.04771C324.87 5.04771 336.38 39.5677 324.87 49.6877C313.36 59.8077 306.1 94.3277 329.98 102.148C353.86 109.968 367.67 139.888 365.82 166.578C365.82 166.578 381.47 170.718 385.61 197.408C385.61 197.408 391.13 206.608 406.32 194.188C421.51 181.768 427.95 181.298 427.95 181.298C427.95 181.298 462.01 161.968 494.22 161.968V190.038C494.22 190.038 523.67 191.418 526.89 203.388L517.69 202.928C517.69 202.928 514.47 305.098 558.65 326.268H514.93C514.93 326.268 483.18 389.318 483.64 413.708C483.64 413.708 501.59 449.608 501.59 466.628C501.59 466.628 519.08 481.818 526.9 504.368L541.63 515.408C541.63 515.408 518.62 560.508 487.79 595.948C487.79 595.948 470.3 631.848 484.11 669.578C484.11 669.578 487.33 716.518 491.47 721.118L470.76 725.718L463.4 732.618C463.4 732.618 440.39 738.598 416.46 724.338C392.53 710.068 364.92 691.668 364.92 691.668L352.49 686.148L246.18 555.448L233.75 539.798L222.71 525.988L215.81 515.868L198.32 512.188C198.32 512.188 185.43 554.528 181.29 559.128C181.29 559.128 171.63 601.928 159.66 614.808L117.32 596.858C117.32 596.858 40.9304 612.048 5.95041 572.928C5.95041 572.928 18.8404 557.738 5.95041 530.588C5.95041 530.588 1.35041 519.548 12.3904 519.548C23.4304 519.548 39.0804 508.968 29.4204 487.798C19.7604 466.628 9.63041 463.408 9.63041 463.408C9.63041 463.408 1.81041 452.368 23.9004 446.378C45.9904 440.388 56.5704 440.858 56.5704 440.858C56.5704 440.858 56.5704 408.648 40.0004 397.138C40.0004 397.138 46.4404 372.288 30.8004 355.258C30.8004 355.258 47.3704 300.958 26.6604 289.908C26.6604 289.908 15.6204 292.208 9.63041 285.308H9.62041Z" fill="#70A3BF"/>
<path d="M9.62041 285.308C9.62041 285.308 11.0004 268.738 24.3504 260.458C37.7004 252.178 53.8004 229.168 56.5604 220.418C56.5604 220.418 73.1304 225.938 90.6204 222.718C90.6204 222.718 101.66 195.108 118.69 196.948C118.69 196.948 138.94 168.418 123.29 152.768C107.64 137.118 93.3804 119.638 67.1404 107.668C67.1404 107.668 61.6204 104.448 80.0304 98.9277C98.4404 93.4077 93.8404 77.2977 93.8404 77.2977C93.8404 77.2977 102.12 75.4577 118.69 79.1377C118.69 79.1377 130.66 60.7277 136.18 58.8877C141.7 57.0477 168.85 50.1477 177.14 48.3077C185.43 46.4677 213.96 29.8977 213.96 29.8977C213.96 29.8977 285.29 21.1577 299.56 13.7877C313.83 6.42771 314.75 1.81771 324.87 5.04771C324.87 5.04771 336.38 39.5677 324.87 49.6877C313.36 59.8077 306.1 94.3277 329.98 102.148C353.86 109.968 367.67 139.888 365.82 166.578C365.82 166.578 381.47 170.718 385.61 197.408C385.61 197.408 391.13 206.608 406.32 194.188C421.51 181.768 427.95 181.298 427.95 181.298C427.95 181.298 462.01 161.968 494.22 161.968V190.038C494.22 190.038 523.67 191.418 526.89 203.388L517.69 202.928C517.69 202.928 514.47 305.098 558.65 326.268H514.93C514.93 326.268 483.18 389.318 483.64 413.708C483.64 413.708 501.59 449.608 501.59 466.628C501.59 466.628 519.08 481.818 526.9 504.368L541.63 515.408C541.63 515.408 518.62 560.508 487.79 595.948C487.79 595.948 470.3 631.848 484.11 669.578C484.11 669.578 487.33 716.518 491.47 721.118L470.76 725.718L463.4 732.618C463.4 732.618 440.39 738.598 416.46 724.338C392.53 710.068 364.92 691.668 364.92 691.668L352.49 686.148L246.18 555.448L233.75 539.798L222.71 525.988L215.81 515.868L198.32 512.188C198.32 512.188 185.43 554.528 181.29 559.128C181.29 559.128 171.63 601.928 159.66 614.808L117.32 596.858C117.32 596.858 40.9304 612.048 5.95041 572.928C5.95041 572.928 18.8404 557.738 5.95041 530.588C5.95041 530.588 1.35041 519.548 12.3904 519.548C23.4304 519.548 39.0804 508.968 29.4204 487.798C19.7604 466.628 9.63041 463.408 9.63041 463.408C9.63041 463.408 1.81041 452.368 23.9004 446.378C45.9904 440.388 56.5704 440.858 56.5704 440.858C56.5704 440.858 56.5704 408.648 40.0004 397.138C40.0004 397.138 46.4404 372.288 30.8004 355.258C30.8004 355.258 47.3704 300.958 26.6604 289.908C26.6604 289.908 15.6204 292.208 9.63041 285.308H9.62041Z" stroke="white" stroke-width="8" mask="url(#path-1-outside-1_0_7032)"/>
</svg>
