<svg width="475" height="798" viewBox="0 0 475 798" fill="none" xmlns="http://www.w3.org/2000/svg">
<mask id="path-1-outside-1_0_7033" maskUnits="userSpaceOnUse" x="0" y="0" width="475" height="799" fill="black">
<rect fill="white" width="475" height="799"/>
<path d="M155.579 616.896C155.579 616.896 142.727 646.067 155.579 670.083C155.579 670.083 147.008 767.883 167.572 790.186C167.572 790.186 173.572 798.768 183.854 790.186C183.854 790.186 200.136 781.604 220.7 750.72C241.263 719.836 274.679 745.572 274.679 745.572C274.679 745.572 316.665 764.449 310.665 724.122C310.665 724.122 304.13 708.68 311.249 701.82C318.376 694.959 334.65 696.672 337.22 688.09C339.791 679.509 328.65 653.772 308.086 640.051C308.086 640.051 308.954 626.723 319.928 625.988C330.903 625.252 356.874 616.888 356.874 616.888C356.874 616.888 355.781 582.402 342.612 575.082C342.612 575.082 344.072 549.813 340.417 544.682C340.417 544.682 323.959 522.706 337.488 509.887V475.828C337.488 475.828 339.682 464.104 311.516 462.274C311.516 462.274 309.321 446.163 326.146 432.242C342.971 418.321 352.852 410.265 356.874 393.052C356.874 393.052 378.456 396.712 391.258 395.249C391.258 395.249 409.543 367.415 422.713 369.245C422.713 369.245 450.144 336.648 416.495 310.643C382.846 284.639 368.942 277.319 368.942 277.319C368.942 277.319 367.482 272.556 375.894 271.461C384.306 270.367 395.648 254.615 397.476 245.457C397.476 245.457 411.379 243.259 421.252 247.655L436.616 228.243L471 218.717V198.211C471 198.211 464.048 162.689 426.009 192.354C426.009 192.354 400.405 184.825 400.405 180.53C400.405 176.235 402.6 153.89 386.501 138.147C386.501 138.147 379.182 123.867 372.965 134.855L364.185 135.223C364.185 135.223 361.99 122.772 329.801 124.602C329.801 124.602 329.067 99.333 293.223 101.163V80.2893L285.904 74.4317C285.904 74.4317 285.904 41.4667 292.488 37.439C292.488 37.439 267.251 26.4507 261.034 14C261.034 14 258.104 37.0713 199.218 42.9373L198.851 52.8227L176.535 54.6527L164.826 44.3997C164.826 44.3997 147.634 53.9257 128.615 52.455L126.42 19.1307L99.7306 14C99.7306 14 93.8803 26.083 81.0782 29.016C68.2761 31.949 60.5982 24.8129 60.5982 24.8129C60.5982 24.8129 56.2084 48.4273 5 61.9726C5 61.9726 7.19489 104.823 36.4545 106.285C65.714 107.748 75.9624 91.637 85.1008 114.708C85.1008 114.708 94.9736 126.432 94.9736 139.977C94.9736 139.977 109.236 152.06 105.948 168.915C102.66 185.769 105.581 216.896 86.9285 228.243C86.9285 228.243 88.3889 258.275 71.5643 264.868L70.471 296.003C70.471 296.003 58.7622 319.81 59.4966 324.205C60.231 328.601 89.4906 380.977 74.8608 375.479C60.231 369.989 39.3838 388.665 29.5026 419.432C19.6298 450.199 23.2851 456.425 23.2851 456.425C23.2851 456.425 62.0587 490.117 62.0587 496.71C62.0587 503.303 61.6915 520.884 61.6915 520.884C61.6915 520.884 78.5161 525.279 79.2505 536.635C79.985 547.991 114.869 610.729 155.587 616.896H155.579Z"/>
</mask>
<path d="M155.579 616.896C155.579 616.896 142.727 646.067 155.579 670.083C155.579 670.083 147.008 767.883 167.572 790.186C167.572 790.186 173.572 798.768 183.854 790.186C183.854 790.186 200.136 781.604 220.7 750.72C241.263 719.836 274.679 745.572 274.679 745.572C274.679 745.572 316.665 764.449 310.665 724.122C310.665 724.122 304.13 708.68 311.249 701.82C318.376 694.959 334.65 696.672 337.22 688.09C339.791 679.509 328.65 653.772 308.086 640.051C308.086 640.051 308.954 626.723 319.928 625.988C330.903 625.252 356.874 616.888 356.874 616.888C356.874 616.888 355.781 582.402 342.612 575.082C342.612 575.082 344.072 549.813 340.417 544.682C340.417 544.682 323.959 522.706 337.488 509.887V475.828C337.488 475.828 339.682 464.104 311.516 462.274C311.516 462.274 309.321 446.163 326.146 432.242C342.971 418.321 352.852 410.265 356.874 393.052C356.874 393.052 378.456 396.712 391.258 395.249C391.258 395.249 409.543 367.415 422.713 369.245C422.713 369.245 450.144 336.648 416.495 310.643C382.846 284.639 368.942 277.319 368.942 277.319C368.942 277.319 367.482 272.556 375.894 271.461C384.306 270.367 395.648 254.615 397.476 245.457C397.476 245.457 411.379 243.259 421.252 247.655L436.616 228.243L471 218.717V198.211C471 198.211 464.048 162.689 426.009 192.354C426.009 192.354 400.405 184.825 400.405 180.53C400.405 176.235 402.6 153.89 386.501 138.147C386.501 138.147 379.182 123.867 372.965 134.855L364.185 135.223C364.185 135.223 361.99 122.772 329.801 124.602C329.801 124.602 329.067 99.333 293.223 101.163V80.2893L285.904 74.4317C285.904 74.4317 285.904 41.4667 292.488 37.439C292.488 37.439 267.251 26.4507 261.034 14C261.034 14 258.104 37.0713 199.218 42.9373L198.851 52.8227L176.535 54.6527L164.826 44.3997C164.826 44.3997 147.634 53.9257 128.615 52.455L126.42 19.1307L99.7306 14C99.7306 14 93.8803 26.083 81.0782 29.016C68.2761 31.949 60.5982 24.8129 60.5982 24.8129C60.5982 24.8129 56.2084 48.4273 5 61.9726C5 61.9726 7.19489 104.823 36.4545 106.285C65.714 107.748 75.9624 91.637 85.1008 114.708C85.1008 114.708 94.9736 126.432 94.9736 139.977C94.9736 139.977 109.236 152.06 105.948 168.915C102.66 185.769 105.581 216.896 86.9285 228.243C86.9285 228.243 88.3889 258.275 71.5643 264.868L70.471 296.003C70.471 296.003 58.7622 319.81 59.4966 324.205C60.231 328.601 89.4906 380.977 74.8608 375.479C60.231 369.989 39.3838 388.665 29.5026 419.432C19.6298 450.199 23.2851 456.425 23.2851 456.425C23.2851 456.425 62.0587 490.117 62.0587 496.71C62.0587 503.303 61.6915 520.884 61.6915 520.884C61.6915 520.884 78.5161 525.279 79.2505 536.635C79.985 547.991 114.869 610.729 155.587 616.896H155.579Z" fill="#70A3BF"/>
<path d="M155.579 616.896C155.579 616.896 142.727 646.067 155.579 670.083C155.579 670.083 147.008 767.883 167.572 790.186C167.572 790.186 173.572 798.768 183.854 790.186C183.854 790.186 200.136 781.604 220.7 750.72C241.263 719.836 274.679 745.572 274.679 745.572C274.679 745.572 316.665 764.449 310.665 724.122C310.665 724.122 304.13 708.68 311.249 701.82C318.376 694.959 334.65 696.672 337.22 688.09C339.791 679.509 328.65 653.772 308.086 640.051C308.086 640.051 308.954 626.723 319.928 625.988C330.903 625.252 356.874 616.888 356.874 616.888C356.874 616.888 355.781 582.402 342.612 575.082C342.612 575.082 344.072 549.813 340.417 544.682C340.417 544.682 323.959 522.706 337.488 509.887V475.828C337.488 475.828 339.682 464.104 311.516 462.274C311.516 462.274 309.321 446.163 326.146 432.242C342.971 418.321 352.852 410.265 356.874 393.052C356.874 393.052 378.456 396.712 391.258 395.249C391.258 395.249 409.543 367.415 422.713 369.245C422.713 369.245 450.144 336.648 416.495 310.643C382.846 284.639 368.942 277.319 368.942 277.319C368.942 277.319 367.482 272.556 375.894 271.461C384.306 270.367 395.648 254.615 397.476 245.457C397.476 245.457 411.379 243.259 421.252 247.655L436.616 228.243L471 218.717V198.211C471 198.211 464.048 162.689 426.009 192.354C426.009 192.354 400.405 184.825 400.405 180.53C400.405 176.235 402.6 153.89 386.501 138.147C386.501 138.147 379.182 123.867 372.965 134.855L364.185 135.223C364.185 135.223 361.99 122.772 329.801 124.602C329.801 124.602 329.067 99.333 293.223 101.163V80.2893L285.904 74.4317C285.904 74.4317 285.904 41.4667 292.488 37.439C292.488 37.439 267.251 26.4507 261.034 14C261.034 14 258.104 37.0713 199.218 42.9373L198.851 52.8227L176.535 54.6527L164.826 44.3997C164.826 44.3997 147.634 53.9257 128.615 52.455L126.42 19.1307L99.7306 14C99.7306 14 93.8803 26.083 81.0782 29.016C68.2761 31.949 60.5982 24.8129 60.5982 24.8129C60.5982 24.8129 56.2084 48.4273 5 61.9726C5 61.9726 7.19489 104.823 36.4545 106.285C65.714 107.748 75.9624 91.637 85.1008 114.708C85.1008 114.708 94.9736 126.432 94.9736 139.977C94.9736 139.977 109.236 152.06 105.948 168.915C102.66 185.769 105.581 216.896 86.9285 228.243C86.9285 228.243 88.3889 258.275 71.5643 264.868L70.471 296.003C70.471 296.003 58.7622 319.81 59.4966 324.205C60.231 328.601 89.4906 380.977 74.8608 375.479C60.231 369.989 39.3838 388.665 29.5026 419.432C19.6298 450.199 23.2851 456.425 23.2851 456.425C23.2851 456.425 62.0587 490.117 62.0587 496.71C62.0587 503.303 61.6915 520.884 61.6915 520.884C61.6915 520.884 78.5161 525.279 79.2505 536.635C79.985 547.991 114.869 610.729 155.587 616.896H155.579Z" stroke="#FBFBFB" stroke-width="8" mask="url(#path-1-outside-1_0_7033)"/>
</svg>
