<svg width="665" height="470" viewBox="0 0 665 470" fill="none" xmlns="http://www.w3.org/2000/svg">
<mask id="path-1-outside-1_0_7026" maskUnits="userSpaceOnUse" x="0" y="0" width="666" height="470" fill="black">
<rect fill="white" width="666" height="470"/>
<path d="M4 374.227C4 374.227 10.2362 394.99 34.7936 397.488V452.739L66.3976 451.085C66.3976 451.085 106.317 427.401 129.218 413.5C129.218 413.5 189.114 405.829 195.773 431.589C195.773 431.589 255.246 431.589 256.092 445.313C256.938 459.038 255.669 459.425 268.565 455.695C281.46 451.965 303.516 464 303.516 464C303.516 464 347.205 416.21 358.409 416.21C369.613 416.21 387.124 419.518 394.593 415.366C402.062 411.213 416.649 407.905 427.853 409.559C427.853 409.559 445.751 402.908 459.88 382.145C459.88 382.145 466.962 376.338 472.775 359.306C478.588 342.273 515.618 319.012 533.517 318.167C533.517 318.167 548.068 307.364 548.913 299.903C549.759 292.442 547.258 271.222 552.648 257.533C558.039 243.843 560.54 220.969 559.73 210.588C559.73 210.588 547.68 196.476 555.573 192.71C563.465 188.945 563.887 189.402 580.94 168.217C580.94 168.217 598.839 157.836 602.996 156.182C602.996 156.182 593.413 117.964 602.996 105.929C612.579 93.8932 631.288 90.9723 635.446 77.2477C639.603 63.5231 649.187 56.9072 655 56.9072C655 56.9072 610.924 14.9591 590.946 27.8391C590.946 27.8391 587.635 39.4875 575.972 28.2614C575.972 28.2614 562.654 19.1117 546.87 18.3023C546.87 18.3023 527.738 9.15257 526.505 7.49858C525.272 5.84459 506.141 5 506.141 5C506.141 5 502.406 25.7629 490.744 25.7629C479.082 25.7629 472.458 23.6866 476.193 18.3023C479.927 12.918 426.267 9.15257 423.801 20.8009C421.335 32.4492 427.536 59.0186 427.536 59.0186C427.536 59.0186 431.693 72.3209 427.113 83.5118C427.113 83.5118 451.353 108.005 416.156 126.727C416.156 126.727 398.116 147.912 416.156 166.598C434.195 185.285 384.27 225.192 384.27 225.192C384.27 225.192 351.397 244.301 348.508 248.876C348.508 248.876 320.639 253.028 303.586 285.439C286.533 317.851 292.347 339.036 292.347 339.036C292.347 339.036 281.107 363.529 273.638 364.373C266.169 365.218 210.007 357.3 210.007 357.3L160.082 346.074C160.082 346.074 156.77 320.736 123.475 313.663C123.475 313.663 123.475 295.398 128.478 277.944C133.481 260.489 131.79 238.072 131.79 238.072C131.79 238.072 115.97 226.846 91.0255 231.843C91.0255 231.843 89.7923 243.878 72.7396 247.222C72.7396 247.222 64.4246 271.328 69.8152 309.968C75.2059 348.608 45.6806 365.218 4.1057 374.368L4 374.227Z"/>
</mask>
<path d="M4 374.227C4 374.227 10.2362 394.99 34.7936 397.488V452.739L66.3976 451.085C66.3976 451.085 106.317 427.401 129.218 413.5C129.218 413.5 189.114 405.829 195.773 431.589C195.773 431.589 255.246 431.589 256.092 445.313C256.938 459.038 255.669 459.425 268.565 455.695C281.46 451.965 303.516 464 303.516 464C303.516 464 347.205 416.21 358.409 416.21C369.613 416.21 387.124 419.518 394.593 415.366C402.062 411.213 416.649 407.905 427.853 409.559C427.853 409.559 445.751 402.908 459.88 382.145C459.88 382.145 466.962 376.338 472.775 359.306C478.588 342.273 515.618 319.012 533.517 318.167C533.517 318.167 548.068 307.364 548.913 299.903C549.759 292.442 547.258 271.222 552.648 257.533C558.039 243.843 560.54 220.969 559.73 210.588C559.73 210.588 547.68 196.476 555.573 192.71C563.465 188.945 563.887 189.402 580.94 168.217C580.94 168.217 598.839 157.836 602.996 156.182C602.996 156.182 593.413 117.964 602.996 105.929C612.579 93.8932 631.288 90.9723 635.446 77.2477C639.603 63.5231 649.187 56.9072 655 56.9072C655 56.9072 610.924 14.9591 590.946 27.8391C590.946 27.8391 587.635 39.4875 575.972 28.2614C575.972 28.2614 562.654 19.1117 546.87 18.3023C546.87 18.3023 527.738 9.15257 526.505 7.49858C525.272 5.84459 506.141 5 506.141 5C506.141 5 502.406 25.7629 490.744 25.7629C479.082 25.7629 472.458 23.6866 476.193 18.3023C479.927 12.918 426.267 9.15257 423.801 20.8009C421.335 32.4492 427.536 59.0186 427.536 59.0186C427.536 59.0186 431.693 72.3209 427.113 83.5118C427.113 83.5118 451.353 108.005 416.156 126.727C416.156 126.727 398.116 147.912 416.156 166.598C434.195 185.285 384.27 225.192 384.27 225.192C384.27 225.192 351.397 244.301 348.508 248.876C348.508 248.876 320.639 253.028 303.586 285.439C286.533 317.851 292.347 339.036 292.347 339.036C292.347 339.036 281.107 363.529 273.638 364.373C266.169 365.218 210.007 357.3 210.007 357.3L160.082 346.074C160.082 346.074 156.77 320.736 123.475 313.663C123.475 313.663 123.475 295.398 128.478 277.944C133.481 260.489 131.79 238.072 131.79 238.072C131.79 238.072 115.97 226.846 91.0255 231.843C91.0255 231.843 89.7923 243.878 72.7396 247.222C72.7396 247.222 64.4246 271.328 69.8152 309.968C75.2059 348.608 45.6806 365.218 4.1057 374.368L4 374.227Z" fill="#70A3BF"/>
<path d="M4 374.227C4 374.227 10.2362 394.99 34.7936 397.488V452.739L66.3976 451.085C66.3976 451.085 106.317 427.401 129.218 413.5C129.218 413.5 189.114 405.829 195.773 431.589C195.773 431.589 255.246 431.589 256.092 445.313C256.938 459.038 255.669 459.425 268.565 455.695C281.46 451.965 303.516 464 303.516 464C303.516 464 347.205 416.21 358.409 416.21C369.613 416.21 387.124 419.518 394.593 415.366C402.062 411.213 416.649 407.905 427.853 409.559C427.853 409.559 445.751 402.908 459.88 382.145C459.88 382.145 466.962 376.338 472.775 359.306C478.588 342.273 515.618 319.012 533.517 318.167C533.517 318.167 548.068 307.364 548.913 299.903C549.759 292.442 547.258 271.222 552.648 257.533C558.039 243.843 560.54 220.969 559.73 210.588C559.73 210.588 547.68 196.476 555.573 192.71C563.465 188.945 563.887 189.402 580.94 168.217C580.94 168.217 598.839 157.836 602.996 156.182C602.996 156.182 593.413 117.964 602.996 105.929C612.579 93.8932 631.288 90.9723 635.446 77.2477C639.603 63.5231 649.187 56.9072 655 56.9072C655 56.9072 610.924 14.9591 590.946 27.8391C590.946 27.8391 587.635 39.4875 575.972 28.2614C575.972 28.2614 562.654 19.1117 546.87 18.3023C546.87 18.3023 527.738 9.15257 526.505 7.49858C525.272 5.84459 506.141 5 506.141 5C506.141 5 502.406 25.7629 490.744 25.7629C479.082 25.7629 472.458 23.6866 476.193 18.3023C479.927 12.918 426.267 9.15257 423.801 20.8009C421.335 32.4492 427.536 59.0186 427.536 59.0186C427.536 59.0186 431.693 72.3209 427.113 83.5118C427.113 83.5118 451.353 108.005 416.156 126.727C416.156 126.727 398.116 147.912 416.156 166.598C434.195 185.285 384.27 225.192 384.27 225.192C384.27 225.192 351.397 244.301 348.508 248.876C348.508 248.876 320.639 253.028 303.586 285.439C286.533 317.851 292.347 339.036 292.347 339.036C292.347 339.036 281.107 363.529 273.638 364.373C266.169 365.218 210.007 357.3 210.007 357.3L160.082 346.074C160.082 346.074 156.77 320.736 123.475 313.663C123.475 313.663 123.475 295.398 128.478 277.944C133.481 260.489 131.79 238.072 131.79 238.072C131.79 238.072 115.97 226.846 91.0255 231.843C91.0255 231.843 89.7923 243.878 72.7396 247.222C72.7396 247.222 64.4246 271.328 69.8152 309.968C75.2059 348.608 45.6806 365.218 4.1057 374.368L4 374.227Z" stroke="#FEFBFB" stroke-width="8" mask="url(#path-1-outside-1_0_7026)"/>
</svg>
