<svg width="784" height="476" viewBox="0 0 784 476" fill="none" xmlns="http://www.w3.org/2000/svg">
<mask id="path-1-outside-1_0_7031" maskUnits="userSpaceOnUse" x="-1" y="-1" width="785" height="477" fill="black">
<rect fill="white" x="-1" y="-1" width="785" height="477"/>
<path d="M8.73062 359.063C8.73062 359.063 1.08586 359.063 5.23278 392.822C9.3797 426.582 22.6498 455.886 26.1116 457.8C26.1116 457.8 38.2278 465.654 40.3914 469.317L47.1707 471C47.1707 471 79.6249 469.317 95.3471 460.539C111.069 451.761 176.302 412.491 187.409 408.795C198.515 405.098 219.863 388.169 242.689 383.351C242.689 383.351 263.387 381.932 274.206 382.493C285.024 383.054 327.647 364.673 327.647 364.673L350.833 344.609C350.833 344.609 369.693 342.629 372.145 341.771C374.597 340.913 376.148 338.933 380.799 327.086C380.799 327.086 392.843 319.727 411.378 333.587C429.913 347.447 431.464 343.751 432.401 350.549C433.339 357.347 454.651 354.212 458.365 350.252C462.079 346.292 467.019 343.751 474.736 342.068C482.453 340.385 496.661 323.423 499.762 322.565C502.863 321.707 504.414 318.044 513.969 322.565C523.525 327.086 540.221 314.942 540.221 314.942C540.221 314.942 557.206 300.818 564.31 299.96C571.413 299.102 596.439 296.297 603.543 286.1C603.543 286.1 606.32 281.578 628.569 289.202C628.569 289.202 641.839 292.304 670.579 276.76C670.579 276.76 678.909 272.8 698.994 274.483V298.508C698.994 298.508 720.017 320.552 743.781 313.787C767.544 307.022 779.625 278.179 779.625 278.179C779.625 278.179 783.014 251.449 769.42 241.285C755.825 231.121 749.046 213.301 749.046 213.301L741.004 195.217L735.739 188.716C735.739 188.716 732.963 198.319 719.368 194.92C705.773 191.521 701.158 185.02 690.34 185.02C690.34 185.02 683.56 187.561 681.397 192.643C679.233 197.725 658.859 205.381 648.041 201.124L624.241 150.237C624.241 150.237 616.813 123.111 617.751 99.054L618.075 95.952C618.075 95.952 567.735 100.473 548.551 95.952C548.551 95.952 534.019 86.9099 530.629 80.4089C527.24 73.9078 506.217 69.3868 498.824 68.8258L499.437 51.0057C499.437 51.0057 508.705 41.9636 508.38 26.4205C508.056 10.8773 499.437 -0.144756 487.069 5.49829C474.7 11.1413 462.656 17.6424 462.656 17.6424C462.656 17.6424 465.144 37.7066 456.778 38.8616C448.412 40.0166 447.186 40.2806 445.672 35.7595C444.157 31.2385 442.895 25.2984 442.895 25.2984C442.895 25.2984 432.69 19.3584 433.014 30.6775C433.339 41.9966 432.401 44.5376 432.401 44.5376C432.401 44.5376 388.228 57.5397 383.576 66.5818C378.924 75.6238 376.472 109.284 338.789 117.765C338.789 117.765 331.685 122.583 331.361 137.565C331.361 137.565 299.556 146.343 288.413 162.151C277.271 177.958 251.019 211.057 249.793 221.815C249.793 221.815 215.5 236.5 211.785 250.096C208.071 263.692 214.274 273.559 203.131 278.08C203.131 278.08 193.539 322.169 173.778 334.346C154.017 346.523 151.529 389.489 110.745 370.25C110.745 370.25 100.864 359.789 77.6776 359.228C77.6776 359.228 65.922 353.288 65.0205 351.605C64.119 349.922 38.4081 364.904 8.62244 359.096L8.73062 359.063Z"/>
</mask>
<path d="M8.73062 359.063C8.73062 359.063 1.08586 359.063 5.23278 392.822C9.3797 426.582 22.6498 455.886 26.1116 457.8C26.1116 457.8 38.2278 465.654 40.3914 469.317L47.1707 471C47.1707 471 79.6249 469.317 95.3471 460.539C111.069 451.761 176.302 412.491 187.409 408.795C198.515 405.098 219.863 388.169 242.689 383.351C242.689 383.351 263.387 381.932 274.206 382.493C285.024 383.054 327.647 364.673 327.647 364.673L350.833 344.609C350.833 344.609 369.693 342.629 372.145 341.771C374.597 340.913 376.148 338.933 380.799 327.086C380.799 327.086 392.843 319.727 411.378 333.587C429.913 347.447 431.464 343.751 432.401 350.549C433.339 357.347 454.651 354.212 458.365 350.252C462.079 346.292 467.019 343.751 474.736 342.068C482.453 340.385 496.661 323.423 499.762 322.565C502.863 321.707 504.414 318.044 513.969 322.565C523.525 327.086 540.221 314.942 540.221 314.942C540.221 314.942 557.206 300.818 564.31 299.96C571.413 299.102 596.439 296.297 603.543 286.1C603.543 286.1 606.32 281.578 628.569 289.202C628.569 289.202 641.839 292.304 670.579 276.76C670.579 276.76 678.909 272.8 698.994 274.483V298.508C698.994 298.508 720.017 320.552 743.781 313.787C767.544 307.022 779.625 278.179 779.625 278.179C779.625 278.179 783.014 251.449 769.42 241.285C755.825 231.121 749.046 213.301 749.046 213.301L741.004 195.217L735.739 188.716C735.739 188.716 732.963 198.319 719.368 194.92C705.773 191.521 701.158 185.02 690.34 185.02C690.34 185.02 683.56 187.561 681.397 192.643C679.233 197.725 658.859 205.381 648.041 201.124L624.241 150.237C624.241 150.237 616.813 123.111 617.751 99.054L618.075 95.952C618.075 95.952 567.735 100.473 548.551 95.952C548.551 95.952 534.019 86.9099 530.629 80.4089C527.24 73.9078 506.217 69.3868 498.824 68.8258L499.437 51.0057C499.437 51.0057 508.705 41.9636 508.38 26.4205C508.056 10.8773 499.437 -0.144756 487.069 5.49829C474.7 11.1413 462.656 17.6424 462.656 17.6424C462.656 17.6424 465.144 37.7066 456.778 38.8616C448.412 40.0166 447.186 40.2806 445.672 35.7595C444.157 31.2385 442.895 25.2984 442.895 25.2984C442.895 25.2984 432.69 19.3584 433.014 30.6775C433.339 41.9966 432.401 44.5376 432.401 44.5376C432.401 44.5376 388.228 57.5397 383.576 66.5818C378.924 75.6238 376.472 109.284 338.789 117.765C338.789 117.765 331.685 122.583 331.361 137.565C331.361 137.565 299.556 146.343 288.413 162.151C277.271 177.958 251.019 211.057 249.793 221.815C249.793 221.815 215.5 236.5 211.785 250.096C208.071 263.692 214.274 273.559 203.131 278.08C203.131 278.08 193.539 322.169 173.778 334.346C154.017 346.523 151.529 389.489 110.745 370.25C110.745 370.25 100.864 359.789 77.6776 359.228C77.6776 359.228 65.922 353.288 65.0205 351.605C64.119 349.922 38.4081 364.904 8.62244 359.096L8.73062 359.063Z" fill="#3A6883"/>
<path d="M8.73062 359.063C8.73062 359.063 1.08586 359.063 5.23278 392.822C9.3797 426.582 22.6498 455.886 26.1116 457.8C26.1116 457.8 38.2278 465.654 40.3914 469.317L47.1707 471C47.1707 471 79.6249 469.317 95.3471 460.539C111.069 451.761 176.302 412.491 187.409 408.795C198.515 405.098 219.863 388.169 242.689 383.351C242.689 383.351 263.387 381.932 274.206 382.493C285.024 383.054 327.647 364.673 327.647 364.673L350.833 344.609C350.833 344.609 369.693 342.629 372.145 341.771C374.597 340.913 376.148 338.933 380.799 327.086C380.799 327.086 392.843 319.727 411.378 333.587C429.913 347.447 431.464 343.751 432.401 350.549C433.339 357.347 454.651 354.212 458.365 350.252C462.079 346.292 467.019 343.751 474.736 342.068C482.453 340.385 496.661 323.423 499.762 322.565C502.863 321.707 504.414 318.044 513.969 322.565C523.525 327.086 540.221 314.942 540.221 314.942C540.221 314.942 557.206 300.818 564.31 299.96C571.413 299.102 596.439 296.297 603.543 286.1C603.543 286.1 606.32 281.578 628.569 289.202C628.569 289.202 641.839 292.304 670.579 276.76C670.579 276.76 678.909 272.8 698.994 274.483V298.508C698.994 298.508 720.017 320.552 743.781 313.787C767.544 307.022 779.625 278.179 779.625 278.179C779.625 278.179 783.014 251.449 769.42 241.285C755.825 231.121 749.046 213.301 749.046 213.301L741.004 195.217L735.739 188.716C735.739 188.716 732.963 198.319 719.368 194.92C705.773 191.521 701.158 185.02 690.34 185.02C690.34 185.02 683.56 187.561 681.397 192.643C679.233 197.725 658.859 205.381 648.041 201.124L624.241 150.237C624.241 150.237 616.813 123.111 617.751 99.054L618.075 95.952C618.075 95.952 567.735 100.473 548.551 95.952C548.551 95.952 534.019 86.9099 530.629 80.4089C527.24 73.9078 506.217 69.3868 498.824 68.8258L499.437 51.0057C499.437 51.0057 508.705 41.9636 508.38 26.4205C508.056 10.8773 499.437 -0.144756 487.069 5.49829C474.7 11.1413 462.656 17.6424 462.656 17.6424C462.656 17.6424 465.144 37.7066 456.778 38.8616C448.412 40.0166 447.186 40.2806 445.672 35.7595C444.157 31.2385 442.895 25.2984 442.895 25.2984C442.895 25.2984 432.69 19.3584 433.014 30.6775C433.339 41.9966 432.401 44.5376 432.401 44.5376C432.401 44.5376 388.228 57.5397 383.576 66.5818C378.924 75.6238 376.472 109.284 338.789 117.765C338.789 117.765 331.685 122.583 331.361 137.565C331.361 137.565 299.556 146.343 288.413 162.151C277.271 177.958 251.019 211.057 249.793 221.815C249.793 221.815 215.5 236.5 211.785 250.096C208.071 263.692 214.274 273.559 203.131 278.08C203.131 278.08 193.539 322.169 173.778 334.346C154.017 346.523 151.529 389.489 110.745 370.25C110.745 370.25 100.864 359.789 77.6776 359.228C77.6776 359.228 65.922 353.288 65.0205 351.605C64.119 349.922 38.4081 364.904 8.62244 359.096L8.73062 359.063Z" stroke="#FEFEFE" strokeWidth="8" mask="url(#path-1-outside-1_0_7031)"/>
</svg>
