<svg width="34" height="34" viewBox="0 0 34 34" fill="none" xmlns="http://www.w3.org/2000/svg">
<g clip-path="url(#clip0_3035_5817)">
<path d="M17.8473 0.511719C11.5376 0.511719 6.4043 5.64573 6.4043 11.9556C6.4043 18.0295 16.7867 32.2201 17.2288 32.821L17.6414 33.3825C17.6896 33.4485 17.7665 33.4871 17.8473 33.4871C17.9294 33.4871 18.0057 33.4485 18.0545 33.3825L18.4668 32.821C18.9091 32.2201 29.2913 18.0295 29.2913 11.9556C29.2913 5.64573 24.1572 0.511719 17.8473 0.511719ZM17.8473 7.85645C20.1081 7.85645 21.9465 9.69493 21.9465 11.9556C21.9465 14.2152 20.108 16.0548 17.8473 16.0548C15.5878 16.0548 13.7481 14.2152 13.7481 11.9556C13.7481 9.69493 15.5878 7.85645 17.8473 7.85645Z" fill="#DC6161"/>
</g>
<defs>
<clipPath id="clip0_3035_5817">
<rect width="32.9754" height="32.9754" fill="white" transform="translate(0.710938 0.359375)"/>
</clipPath>
</defs>
</svg>
